<svg width="663" height="297" viewBox="0 0 663 297" fill="none" xmlns="http://www.w3.org/2000/svg">
<path d="M315.587 117.795C315.364 118.688 314.583 119.134 313.245 119.134C312.13 118.911 311.35 119.245 310.904 120.137C314.249 125.266 315.698 129.95 315.252 134.187C314.806 138.424 313.357 142.439 310.904 146.23C308.227 150.021 304.994 153.701 301.202 157.269C297.634 160.837 294.289 164.517 291.167 168.308C285.145 167.416 279.904 165.855 275.444 163.625C270.984 161.172 266.747 158.496 262.732 155.597C261.84 155.374 261.506 156.377 261.729 158.607C261.952 159.945 261.952 160.837 261.729 161.283C257.268 162.399 253.477 164.406 250.355 167.305C247.456 169.981 244.891 173.103 242.661 176.672C239.316 182.247 236.416 188.268 233.963 194.736C231.51 201.203 228.722 207.336 225.6 213.135C229.168 216.703 233.629 220.271 238.981 223.839C244.556 227.185 250.132 230.084 255.707 232.537C261.506 234.767 266.412 236.217 270.426 236.886C273.772 239.339 277.228 241.792 280.797 244.245C284.365 246.475 288.268 248.26 292.505 249.598C293.62 252.943 295.293 255.508 297.523 257.292C299.976 259.076 302.429 260.971 304.882 262.979C307.335 264.763 309.008 267.439 309.9 271.007C306.778 277.921 302.875 283.05 298.192 286.395C293.731 289.963 288.156 292.305 281.466 293.42C277.451 291.413 273.102 290.298 268.419 290.075C263.959 290.075 259.61 289.517 255.373 288.402C251.358 287.287 248.013 284.611 245.337 280.374C244.445 280.597 243.664 280.597 242.995 280.374C242.326 280.374 241.769 280.151 241.323 279.705C240.208 279.259 239.316 279.036 238.647 279.036C233.517 271.23 228.165 263.871 222.589 256.957C217.014 249.821 211.439 242.684 205.863 235.548C201.626 239.785 196.497 244.022 190.475 248.26C184.454 252.497 178.209 256.957 171.742 261.64C166.166 265.432 160.145 269.669 153.678 274.352C147.21 279.036 140.743 282.269 134.275 284.054C127.362 286.061 121.675 285.726 117.215 283.05C112.977 280.597 108.851 277.363 104.837 273.349C113.312 271.788 121.675 269.112 129.926 265.32C138.178 261.306 145.984 256.734 153.343 251.605C161.595 245.806 168.954 239.562 175.422 232.871C181.889 226.181 187.241 219.602 191.479 213.135C185.234 205.329 178.878 197.635 172.411 190.052C165.943 182.247 159.811 174.218 154.012 165.967C159.811 164.852 164.717 165.632 168.731 168.308C172.968 170.985 176.983 174.218 180.774 178.01C184.342 181.578 187.911 185.035 191.479 188.38C195.047 191.725 199.061 194.067 203.522 195.405C207.313 191.168 210.101 186.15 211.885 180.351C213.892 174.33 215.899 168.42 217.906 162.622C215.007 161.506 212.219 161.172 209.543 161.618C206.867 161.841 204.191 162.287 201.514 162.956C199.061 163.625 196.497 164.183 193.82 164.629C191.367 164.852 188.691 164.517 185.792 163.625C184.454 163.179 183.673 163.737 183.45 165.298C183.004 166.636 182.335 167.305 181.443 167.305C174.53 165.521 167.951 163.402 161.706 160.949C155.462 158.273 150.332 154.482 146.318 149.575C146.764 148.46 147.768 147.791 149.329 147.568C151.113 147.122 152.34 146.23 153.009 144.892C160.368 146.453 167.728 146.899 175.087 146.23C182.447 145.561 190.029 144.557 197.835 143.219C201.403 142.773 204.971 142.327 208.539 141.881C212.331 141.212 216.122 140.655 219.913 140.209C221.474 139.762 222.366 138.759 222.589 137.198C223.035 135.414 224.039 134.41 225.6 134.187C229.168 133.964 233.071 134.522 237.308 135.86C241.769 137.198 245.895 139.205 249.686 141.881C253.7 144.557 256.599 147.903 258.383 151.917C259.499 152.363 260.279 152.363 260.725 151.917C261.394 151.471 261.84 151.025 262.063 150.579C262.286 150.133 262.509 149.798 262.732 149.575C268.754 143.331 272.433 137.198 273.772 131.176C275.11 124.932 276.225 120.026 277.117 116.457C267.973 112.443 258.606 110.77 249.017 111.439C239.427 111.886 229.949 112.889 220.582 114.45C218.352 114.896 216.01 115.342 213.557 115.788C211.327 116.011 209.097 116.234 206.867 116.457C205.306 116.68 203.745 116.903 202.184 117.126C200.622 117.126 199.061 117.126 197.5 117.126C193.263 117.126 189.026 117.461 184.788 118.13C180.774 118.576 176.76 120.026 172.745 122.479C168.285 120.918 163.825 121.029 159.365 122.813C154.904 124.597 151.001 126.382 147.656 128.166C145.426 137.978 143.419 148.683 141.635 160.28C140.074 171.654 138.736 183.027 137.621 194.401C130.038 194.847 124.351 193.175 120.56 189.383C116.992 185.369 113.869 181.02 111.193 176.337C110.301 174.776 109.632 173.661 109.186 172.992C112.531 169.87 115.765 165.075 118.887 158.607C122.009 152.14 123.459 145.784 123.236 139.539C123.236 135.302 122.232 131.622 120.225 128.5C118.218 125.155 114.873 122.702 110.19 121.141C111.305 116.903 113.646 114.227 117.215 113.112C120.783 111.774 124.351 111.774 127.919 113.112C131.711 109.99 136.171 107.871 141.3 106.756C146.653 105.641 152.005 104.972 157.357 104.749C157.134 103.188 156.688 102.407 156.019 102.407C155.35 102.184 154.57 102.184 153.678 102.407C153.009 102.63 152.34 102.853 151.67 103.076C151.001 103.076 150.332 102.853 149.663 102.407C146.318 100.177 143.307 96.9435 140.631 92.7062C138.178 88.2459 135.948 83.5625 133.941 78.6562C131.934 73.5269 129.926 68.8435 127.919 64.6062C133.718 64.1602 138.959 64.8292 143.642 66.6134C148.325 68.3975 152.451 71.0737 156.019 74.6419C159.811 78.2102 162.933 82.4475 165.386 87.3538C168.062 92.2602 170.181 97.278 171.742 102.407C179.547 100.846 187.799 99.9542 196.497 99.7312C205.417 99.2851 214.226 98.9506 222.924 98.7276C231.622 98.5046 239.427 98.1701 246.341 97.724C248.125 97.501 250.132 97.1665 252.362 96.7205C254.592 96.0514 255.484 95.1594 255.038 94.0443C268.196 91.5911 280.127 92.7062 290.832 97.3895C301.76 101.85 310.012 108.652 315.587 117.795ZM133.272 95.3824C126.581 97.6125 120.337 99.5082 114.538 101.069C108.74 102.63 102.496 105.418 95.8051 109.432C95.8051 111.663 95.6936 113.781 95.4706 115.788C95.4706 117.795 95.4706 119.691 95.4706 121.475C95.2476 126.159 95.136 130.73 95.136 135.191C95.3591 139.428 96.0281 144.223 97.1432 149.575C100.934 150.913 103.834 152.028 105.841 152.92C107.848 153.812 110.747 155.039 114.538 156.6C113.646 162.399 111.082 166.413 106.844 168.643C102.607 170.873 98.5928 173.549 94.8015 176.672C95.0245 185.592 95.5821 195.962 96.4741 207.782C97.3662 219.379 98.2583 231.087 99.1503 242.907C100.042 254.504 100.488 264.651 100.488 273.349C100.488 278.255 100.042 282.381 99.1503 285.726C98.2583 289.071 96.4741 291.636 93.7979 293.42C81.5321 290.744 71.7194 285.28 64.3599 277.029C57.0004 268.777 50.3099 259.856 44.2885 250.267C43.6194 249.375 42.8389 248.371 41.9468 247.256C41.2778 246.141 40.4972 245.026 39.6052 243.911C37.821 241.681 36.1484 239.562 34.5873 237.555C33.2492 235.548 32.8032 234.098 33.2492 233.206C36.3714 234.767 39.2706 236.44 41.9468 238.224C44.623 240.008 47.4107 241.792 50.3099 243.576C53.6551 245.806 57.1119 247.925 60.6801 249.932C64.2484 251.939 67.9281 253.835 71.7194 255.619C74.3956 250.713 75.9567 244.245 76.4027 236.217C76.8488 228.188 76.7373 219.937 76.0682 211.462C75.6222 202.764 74.9531 195.516 74.0611 189.718C69.1547 190.61 64.8059 192.617 61.0147 195.739C57.4464 198.862 53.8782 201.984 50.3099 205.106C45.6266 209.343 40.7202 212.8 35.5909 215.476C30.6845 217.929 24.4401 217.595 16.8576 214.473C13.5123 209.566 10.3901 205.552 7.49092 202.43C4.59172 199.308 2.25005 194.29 0.46593 187.376C7.60243 188.268 14.4044 187.822 20.8719 186.038C27.5623 184.254 34.0298 181.912 40.2742 179.013C46.2956 176.114 52.094 172.992 57.6694 169.647C63.4678 166.301 69.2662 163.179 75.0646 160.28C74.8416 155.82 74.7301 151.248 74.7301 146.564C74.7301 141.881 74.8416 137.198 75.0646 132.514C75.0646 129.169 75.0646 125.824 75.0646 122.479C75.0646 118.911 75.0646 115.342 75.0646 111.774C71.7194 111.328 68.4857 111.774 65.3635 113.112C62.2412 114.45 59.119 115.9 55.9968 117.461C52.6516 119.245 49.1948 120.806 45.6266 122.144C42.2814 123.259 38.9361 123.371 35.5909 122.479C31.1306 121.141 27.5623 118.799 24.8861 115.454C22.433 111.886 20.2028 107.983 18.1957 103.745C16.1885 99.2852 13.9584 95.2709 11.5052 91.7026C15.7425 90.3645 20.0913 89.807 24.5516 90.03C29.0119 90.03 33.5837 90.253 38.2671 90.699C39.1591 90.9221 40.0512 91.1451 40.9433 91.3681C42.0583 91.3681 43.0619 91.3681 43.954 91.3681C49.3063 91.8141 54.6587 91.9256 60.0111 91.7026C65.3635 91.4796 70.7158 89.9185 76.0682 87.0193C76.0682 84.1201 75.8452 80.7749 75.3992 76.9836C75.1761 72.9693 74.8416 68.8435 74.3956 64.6062C73.9496 59.0308 73.5035 53.567 73.0575 48.2146C72.6115 42.8622 72.6115 38.5134 73.0575 35.1682C72.3885 32.938 71.4964 30.8194 70.3813 28.8122C69.2662 26.8051 68.0397 24.7979 66.7016 22.7908C64.6944 19.6686 62.9103 16.4349 61.3492 13.0896C59.7881 9.74439 59.2305 6.17615 59.6766 2.38488C70.1583 1.2698 79.4134 2.94241 87.442 7.40272C95.4706 11.64 101.269 19.3341 104.837 30.4848C102.83 36.7293 101.269 44.5348 100.154 53.9015C99.2618 63.0451 98.9273 71.7427 99.1503 79.9943C103.611 80.8864 108.071 81.7784 112.531 82.6705C117.215 83.5625 121.452 84.9006 125.243 86.6848C129.034 88.4689 131.711 91.3681 133.272 95.3824ZM251.693 29.4813C245.895 32.3805 238.535 35.1682 229.614 37.8444C220.917 40.5205 211.773 43.0852 202.184 45.5384C192.817 47.7685 184.119 50.2217 176.091 52.8979C173.861 53.567 171.63 54.682 169.4 56.2431C167.17 57.8043 165.051 58.6963 163.044 58.9193C159.476 59.1423 156.465 58.4733 154.012 56.9122C151.782 55.1281 149.552 53.2324 147.322 51.2253C145.984 49.8872 144.646 48.6606 143.307 47.5455C141.969 46.2074 140.408 45.2039 138.624 44.5348C140.185 43.1967 142.638 41.9701 145.984 40.8551C149.329 39.517 152.674 38.6249 156.019 38.1789C159.365 37.5098 161.706 37.7329 163.044 38.8479C169.066 34.1646 176.202 31.0424 184.454 29.4813C192.705 27.6971 200.176 25.69 206.867 23.4599C207.759 20.7837 207.759 18.665 206.867 17.1039C206.198 15.3198 205.306 13.6472 204.191 12.0861C203.299 10.971 202.407 9.85589 201.514 8.74082C200.845 7.62574 200.399 6.28765 200.176 4.72655C212.442 4.72655 222.143 5.61861 229.28 7.40272C236.639 8.96384 243.776 12.3091 250.689 17.4384C250.689 18.5535 250.801 19.5571 251.024 20.4491C251.247 21.1182 251.47 21.8987 251.693 22.7908C251.916 23.9059 252.027 25.021 252.027 26.136C252.251 27.2511 252.139 28.3662 251.693 29.4813ZM277.117 65.9443C274.887 70.8507 271.653 74.7534 267.416 77.6526C263.401 80.3288 259.276 83.1165 255.038 86.0157C254.369 87.7998 253.477 89.3609 252.362 90.699C251.247 92.0371 250.355 93.5983 249.686 95.3824C248.348 96.0514 246.675 96.2744 244.668 96.0514C242.884 95.6054 240.988 95.1594 238.981 94.7133C238.312 94.4903 237.643 94.3788 236.974 94.3788C236.305 94.1558 235.636 93.9328 234.967 93.7098C234.075 93.4867 233.183 93.4867 232.291 93.7098C231.622 93.9328 230.953 94.2673 230.283 94.7133C228.722 95.3824 227.496 95.6054 226.604 95.3824C228.611 89.807 232.068 84.1201 236.974 78.3217C241.88 72.3003 245.672 65.8328 248.348 58.9193C246.564 57.1352 245.226 54.9051 244.333 52.2289C243.664 49.3297 242.103 47.211 239.65 45.8729C244.556 42.3047 249.574 41.3011 254.704 42.8622C260.056 44.2003 264.851 47.0995 269.088 51.5598C273.325 55.7971 276.002 60.5919 277.117 65.9443ZM213.223 96.3859C207.87 96.3859 203.299 95.4939 199.507 93.7098C195.716 91.7026 192.482 88.9149 189.806 85.3467C186.907 81.5554 184.565 77.0951 182.781 71.9657C180.997 66.6134 179.547 61.038 178.432 55.2396C183.339 54.7935 188.134 55.4626 192.817 57.2467C197.5 58.8078 201.514 61.5955 204.86 65.6098C208.205 69.6241 210.658 74.4189 212.219 79.9943C214.003 85.3467 214.338 90.8106 213.223 96.3859ZM662.488 85.3467C656.02 87.3538 648.438 88.3574 639.74 88.3574C631.265 88.1344 622.345 87.7998 612.978 87.3538C607.403 87.1308 601.716 86.9078 595.918 86.6848C590.119 86.4618 584.544 86.4618 579.191 86.6848C579.86 91.1451 578.411 96.609 574.843 103.076C571.274 109.544 567.595 114.896 563.803 119.134C565.141 120.472 566.925 121.587 569.156 122.479C571.609 123.371 574.062 124.263 576.515 125.155C580.306 126.493 583.763 127.943 586.885 129.504C590.008 131.065 591.346 133.518 590.9 136.863C585.547 138.647 579.972 139.762 574.173 140.209C568.375 140.655 562.354 140.878 556.109 140.878C552.095 141.101 547.858 141.324 543.397 141.547C538.937 141.547 534.254 141.881 529.347 142.55V152.92C530.685 154.482 533.027 155.151 536.372 154.928C539.941 154.705 543.397 153.924 546.743 152.586C550.088 151.248 551.983 149.687 552.429 147.903C557.782 149.241 563.357 150.356 569.156 151.248C574.954 152.14 580.306 153.478 585.213 155.262C590.119 157.046 593.687 160.057 595.918 164.294C591.011 166.078 584.878 167.416 577.519 168.308C570.159 169.201 562.354 169.87 554.102 170.316C546.074 170.762 538.268 171.208 530.685 171.654C530.685 172.323 530.685 173.661 530.685 175.668C530.462 176.56 530.351 177.675 530.351 179.013C530.351 180.128 530.462 181.466 530.685 183.028C538.937 183.697 546.52 183.697 553.433 183.028C560.57 182.135 567.148 181.243 573.17 180.351C579.86 179.236 586.105 178.456 591.903 178.01C597.702 177.564 603.277 178.121 608.629 179.682C611.752 180.574 615.097 181.912 618.665 183.697C622.233 185.258 625.133 187.376 627.363 190.052C629.816 192.506 630.373 195.516 629.035 199.085C620.784 198.416 611.752 198.193 601.939 198.416C592.126 198.639 582.648 198.973 573.504 199.419C567.929 199.642 562.577 199.865 557.447 200.088C552.541 200.088 548.081 200.088 544.066 200.088C549.196 206.333 555.44 211.573 562.8 215.811C570.159 220.048 577.965 223.951 586.216 227.519C594.691 231.087 602.831 234.767 610.637 238.558C618.665 242.35 625.802 246.81 632.046 251.939C638.513 257.069 643.531 263.536 647.1 271.342C639.294 278.032 631.154 281.6 622.679 282.046C614.205 282.715 606.065 281.266 598.259 277.698C590.454 274.352 583.652 269.892 577.853 264.317C572.278 258.741 568.487 253.054 566.479 247.256C563.803 244.134 560.347 240.454 556.109 236.217C552.095 231.979 547.969 227.742 543.732 223.505C539.495 219.268 535.815 215.588 532.693 212.466C531.578 216.48 531.131 221.386 531.354 227.185C531.801 232.983 532.247 239.227 532.693 245.918C533.362 252.608 533.808 259.41 534.031 266.324C534.477 273.237 534.142 279.705 533.027 285.726C530.574 288.402 527.898 290.744 524.999 292.751C522.099 294.981 518.754 296.208 514.963 296.431C511.395 296.654 507.603 295.65 503.589 293.42C499.575 291.19 495.672 288.625 491.881 285.726C486.305 281.266 480.953 277.586 475.824 274.687C470.917 272.011 466.011 269.335 461.105 266.658C456.198 263.759 451.069 260.191 445.717 255.954C442.817 257.292 439.918 258.853 437.019 260.637C434.343 262.198 431.667 263.871 428.99 265.655C424.084 269 419.178 271.899 414.271 274.352C409.365 276.806 404.459 277.698 399.552 277.029C394.869 276.583 390.186 273.46 385.502 267.662C389.963 264.54 394.869 261.864 400.221 259.633C405.574 257.403 410.034 254.504 413.602 250.936C414.271 250.936 414.606 251.27 414.606 251.939C414.606 252.385 414.717 252.831 414.94 253.277C420.293 247.925 427.318 242.573 436.015 237.22C444.713 231.645 453.634 226.07 462.777 220.494C472.144 214.696 479.949 209.12 486.194 203.768C481.734 203.545 477.162 203.991 472.478 205.106C468.018 206.221 463.781 207.448 459.766 208.786C457.313 209.678 454.972 210.458 452.741 211.127C450.734 211.797 448.839 212.243 447.055 212.466C438.357 213.804 430.217 212.354 422.634 208.117C415.275 203.656 409.699 197.97 405.908 191.056C412.153 190.833 419.847 190.61 428.99 190.387C438.357 189.941 447.947 189.495 457.759 189.049C467.572 188.38 476.716 187.711 485.19 187.042C493.665 186.373 500.244 185.592 504.927 184.7C505.596 183.808 505.819 182.581 505.596 181.02C505.596 179.459 505.485 177.898 505.262 176.337C505.039 174.776 504.927 173.661 504.927 172.992C503.589 173.215 502.139 173.438 500.578 173.661C499.017 173.661 497.345 173.661 495.56 173.661C490.877 173.661 486.194 174.107 481.511 174.999C477.05 175.668 474.151 177.787 472.813 181.355C461.662 180.463 451.849 178.679 443.375 176.003C434.9 173.103 429.771 169.312 427.987 164.629C432.67 163.737 438.692 162.845 446.051 161.953C453.411 160.837 460.993 159.945 468.799 159.276C476.604 158.384 483.741 157.604 490.208 156.935C496.676 156.266 501.359 155.82 504.258 155.597C504.258 155.374 504.258 154.928 504.258 154.258C504.258 152.92 504.258 151.248 504.258 149.241C504.258 147.01 504.147 145.338 503.924 144.223C501.916 144.223 498.237 144.334 492.884 144.557C487.532 144.78 482.18 145.449 476.827 146.564C471.698 147.457 468.241 148.906 466.457 150.913C457.09 150.021 448.727 147.568 441.368 143.554C434.231 139.539 428.879 135.414 425.311 131.176C426.203 130.061 428.098 129.504 430.997 129.504C434.12 129.504 437.242 129.727 440.364 130.173C443.709 130.619 445.94 130.953 447.055 131.176C450.177 130.507 454.08 130.173 458.763 130.173C463.669 129.95 467.349 129.504 469.802 128.835C465.788 125.712 462.22 121.029 459.097 114.785C456.198 108.54 453.857 102.742 452.072 97.3895C446.943 96.0514 441.925 96.0514 437.019 97.3895C432.113 98.5046 427.206 100.066 422.3 102.073C416.278 104.08 410.257 105.753 404.236 107.091C398.214 108.429 391.97 107.202 385.502 103.411C384.164 99.8427 381.823 97.278 378.477 95.7169C375.355 93.9328 372.344 91.9256 369.445 89.6955C366.546 87.4653 365.096 84.0086 365.096 79.3253C368.888 78.8792 373.236 78.6562 378.143 78.6562C383.049 78.6562 388.178 78.6562 393.531 78.6562C401.559 78.6562 409.811 78.5447 418.286 78.3217C426.983 78.0987 434.9 77.4296 442.037 76.3145C433.116 73.1923 426.203 67.84 421.296 60.2574C416.613 52.4519 412.822 44.0888 409.923 35.1682C417.951 36.5063 425.311 38.8479 432.001 42.1932C438.692 45.3154 444.044 49.5527 448.058 54.905C452.072 60.2574 453.857 66.8364 453.411 74.6419C457.425 74.1959 461.774 73.8614 466.457 73.6383C471.363 73.1923 475.601 72.6348 479.169 71.9657C477.385 66.1673 475.935 59.8114 474.82 52.8979C473.705 45.7614 472.144 39.4055 470.137 33.8301C469.468 32.938 468.576 32.046 467.461 31.1539C466.345 30.0388 465.119 29.0352 463.781 28.1432C460.882 25.69 458.317 23.2368 456.087 20.7837C453.857 18.3305 453.411 15.8773 454.749 13.4241C459.655 11.863 465.119 11.5285 471.14 12.4206C477.162 13.0896 482.737 14.6507 487.866 17.1039C493.219 19.5571 497.122 22.7908 499.575 26.8051C499.575 29.7043 499.463 32.6035 499.24 35.5027C499.017 38.1789 498.794 40.9666 498.571 43.8658C497.902 48.3261 497.456 52.7864 497.233 57.2467C497.01 61.707 497.456 66.2788 498.571 70.9622C501.693 70.9622 504.258 70.9622 506.265 70.9622C508.272 70.7392 510.168 70.5161 511.952 70.2931C513.736 70.2931 515.632 70.2931 517.639 70.2931C519.646 70.0701 522.211 69.9586 525.333 69.9586C528.455 55.9086 530.016 43.5312 530.016 32.8265C530.016 21.8987 526.337 11.863 518.977 2.7194C527.229 1.15829 533.919 1.26981 539.049 3.05393C544.401 4.61504 548.861 6.51066 552.429 8.74082C556.667 14.3162 558.339 20.2261 557.447 26.4706C556.778 32.492 555.329 38.9594 553.099 45.8729C552.206 49.4412 551.203 53.1209 550.088 56.9122C549.196 60.7035 548.527 64.6062 548.081 68.6205C550.534 69.0665 553.768 69.178 557.782 68.955C561.796 68.732 565.364 68.3975 568.487 67.9515C569.825 67.9515 571.051 67.9515 572.166 67.9515C573.281 67.7284 574.173 67.6169 574.843 67.6169C574.843 67.6169 573.281 66.9479 570.159 65.6098C567.037 64.2717 564.918 63.2681 563.803 62.5991C569.156 57.9158 573.95 52.7864 578.188 47.211C582.425 41.6356 586.997 36.3948 591.903 31.4884C591.234 28.1432 589.673 25.69 587.22 24.1289C584.767 22.5678 583.429 19.8916 583.206 16.1003C588.781 16.3233 594.914 16.8809 601.604 17.773C608.295 18.665 614.093 20.5607 619 23.4599C624.129 26.136 626.694 30.8194 626.694 37.5098C619.557 41.7471 612.755 47.0995 606.288 53.5669C600.043 59.8114 592.795 64.4947 584.544 67.6169C590.119 68.063 594.802 67.84 598.594 66.9479C602.385 66.0558 605.842 65.0523 608.964 63.9372C611.64 63.0451 614.205 62.3761 616.658 61.93C619.334 61.261 622.233 61.1495 625.356 61.5955C630.039 63.1566 634.945 64.8292 640.075 66.6134C645.427 68.1745 650.11 70.4046 654.125 73.3038C658.362 75.98 661.15 79.9943 662.488 85.3467ZM550.088 87.3538C536.484 88.4689 522.768 89.3609 508.941 90.03C495.337 90.476 482.403 91.7026 470.137 93.7098C474.82 95.0479 478.277 97.6125 480.507 101.404C482.737 104.972 484.521 108.986 485.859 113.447C487.197 117.907 488.87 122.144 490.877 126.159C498.683 125.936 506.377 125.712 513.959 125.489C521.542 125.266 528.79 124.709 535.703 123.817C537.933 117.572 540.387 111.551 543.063 105.753C545.962 99.7312 548.304 93.5982 550.088 87.3538ZM506.265 217.149C496.676 222.501 486.863 228.523 476.827 235.213C466.791 241.904 457.313 248.371 448.393 254.615C456.421 257.738 465.119 259.522 474.486 259.968C483.852 260.414 492.884 260.191 501.582 259.299C505.373 254.839 507.269 248.483 507.269 240.231C507.269 231.756 506.934 224.062 506.265 217.149Z" fill="black"/>
</svg>
