<svg width="663" height="293" viewBox="0 0 663 293" fill="none" xmlns="http://www.w3.org/2000/svg">
<path d="M325.27 271.694C326.831 274.37 327.277 276.377 326.608 277.715C326.162 279.277 325.382 280.726 324.267 282.064C324.044 282.287 323.932 282.399 323.932 282.399C321.256 283.96 318.022 284.963 314.231 285.409C310.44 285.856 307.764 287.528 306.202 290.427C299.512 289.758 292.264 288.755 284.458 287.417C276.876 286.079 269.851 283.848 263.383 280.726C256.916 277.827 252.01 273.924 248.664 269.018C247.772 269.464 246.657 269.464 245.319 269.018C244.873 268.795 244.316 268.572 243.647 268.349C242.978 268.349 242.085 268.572 240.97 269.018C240.747 264.558 238.183 260.766 233.276 257.644C228.593 254.299 224.356 251.4 220.564 248.946C214.766 253.853 208.745 258.871 202.5 264C196.479 269.129 189.788 273.255 182.429 276.377C178.191 277.938 173.731 279.054 169.048 279.723C164.365 280.392 159.347 280.392 153.994 279.723C147.75 278.831 142.621 277.046 138.606 274.37C134.592 271.694 129.128 269.91 122.215 269.018C119.761 269.018 118.089 269.91 117.197 271.694C116.528 273.478 115.19 274.593 113.182 275.039C112.513 275.262 111.621 275.151 110.506 274.705C110.06 274.482 109.503 274.259 108.834 274.036C108.388 274.036 107.719 274.37 106.827 275.039C104.596 273.924 102.255 272.809 99.8015 271.694C97.5714 270.802 96.0103 269.129 95.1182 266.676C96.0103 266.23 96.9023 265.784 97.7944 265.338C98.9095 264.892 99.913 264.446 100.805 264C103.258 263.108 105.488 262.104 107.496 260.989C109.726 259.874 110.729 258.648 110.506 257.31C109.837 257.31 109.057 257.533 108.165 257.979C107.05 258.648 106.157 258.759 105.488 258.313C105.711 257.644 106.269 256.975 107.161 256.306C108.053 255.414 109.168 255.302 110.506 255.971C120.096 245.49 128.794 235.008 136.599 224.526C144.405 214.045 151.095 202.336 156.67 189.401C156.447 188.955 156.001 188.621 155.332 188.398C154.217 187.729 153.771 186.948 153.994 186.056C156.894 185.833 158.678 185.164 159.347 184.049C160.016 182.934 160.35 182.376 160.35 182.376C159.458 181.93 158.678 181.373 158.009 180.704C157.563 180.035 157.117 179.254 156.67 178.362C156.001 177.024 155.221 175.909 154.329 175.017C153.437 173.902 151.653 173.567 148.976 174.013C148.976 174.013 149.98 173.01 151.987 171.003C154.217 168.995 157.005 168.438 160.35 169.33C160.35 169.33 159.681 168.549 158.343 166.988C157.228 165.204 156.001 163.085 154.663 160.632C153.548 158.179 152.991 155.837 152.991 153.607C152.991 149.147 153.437 144.352 154.329 139.223C155.444 134.093 156.113 129.076 156.336 124.169C156.336 121.047 156.001 117.925 155.332 114.803C154.663 111.68 153.325 108.893 151.318 106.439C153.771 105.324 155.221 103.652 155.667 101.422C156.113 99.1915 155.778 97.1844 154.663 95.4002C151.095 90.2709 146.635 87.1487 141.282 86.0336C141.059 84.6955 141.394 83.9149 142.286 83.6919C143.178 83.4689 144.182 83.3574 145.297 83.3574C146.189 83.3574 146.969 83.2459 147.638 83.0229C148.53 82.7998 148.976 82.2423 148.976 81.3503C148.084 80.6812 146.858 80.3467 145.297 80.3467C143.959 80.1237 142.397 79.9006 140.613 79.6776C139.052 79.4546 137.491 79.0086 135.93 78.3395C134.592 77.4475 133.365 76.1094 132.25 74.3253C131.135 74.3253 130.243 74.7713 129.574 75.6633C128.905 76.3324 128.571 76.6669 128.571 76.6669C127.901 74.2137 128.571 72.5411 130.578 71.6491C132.585 70.757 134.034 71.6491 134.926 74.3253C136.042 73.6562 136.599 72.8756 136.599 71.9836C136.599 71.0915 136.042 70.6455 134.926 70.6455C134.48 68.1923 134.926 65.9622 136.265 63.955C137.603 61.7249 139.164 59.6062 140.948 57.5991C141.84 56.484 142.509 55.5919 142.955 54.9229C144.739 52.6927 146.077 50.4626 146.969 48.2324C147.861 45.7793 147.638 42.9916 146.3 39.8694C149.869 38.9773 152.433 37.3047 153.994 34.8515C155.778 32.1753 157.228 29.3876 158.343 26.4884C159.681 23.3662 161.242 20.69 163.026 18.4599C162.357 16.0067 161.354 13.7765 160.016 11.7694C158.901 9.76225 157.786 7.6436 156.67 5.41343C157.786 1.84519 160.685 0.172575 165.368 0.395588C169.605 1.73368 174.289 3.29479 179.418 5.07891C184.547 6.86304 188.785 9.31621 192.13 12.4384C193.914 14.2226 195.364 16.3412 196.479 18.7944C197.594 21.0245 197.928 23.7007 197.482 26.8229C196.813 28.161 195.252 29.2761 192.799 30.1682C190.346 31.0602 188.896 32.1753 188.45 33.5134C191.795 33.0674 196.256 32.7328 201.831 32.5098C207.407 32.0638 213.205 31.6178 219.226 31.1717C225.471 30.5027 231.158 29.7221 236.287 28.8301C241.639 27.715 245.765 26.1539 248.664 24.1468C252.01 26.3769 255.801 28.0495 260.038 29.1646C264.499 30.2797 268.736 31.6178 272.75 33.1789C275.872 34.2939 278.66 35.7436 281.113 37.5277C283.789 39.3118 285.685 41.6535 286.8 44.5527C278.102 44.3297 268.513 44.6642 258.031 45.5562C247.549 46.4483 236.956 47.4519 226.251 48.5669C216.885 49.682 207.63 50.6856 198.486 51.5777C189.565 52.2467 181.091 52.6927 173.062 52.9158C169.494 56.038 165.814 59.7177 162.023 63.955C158.232 68.1923 155.109 71.9836 152.656 75.3288C150.203 78.451 148.976 80.0122 148.976 80.0122C152.099 77.782 155.444 75.7749 159.012 73.9907C162.803 72.2066 166.818 70.98 171.055 70.311C177.299 69.1959 184.101 68.5268 191.461 68.3038C198.82 67.8578 206.403 67.0773 214.209 65.9622C216.662 65.5161 219.003 65.0701 221.233 64.6241C223.464 63.955 225.582 63.3975 227.589 62.9515C230.489 62.0594 233.165 61.3903 235.618 60.9443C238.294 60.2753 240.97 59.9408 243.647 59.9408C252.121 60.1638 259.815 61.9479 266.729 65.2931C273.865 68.6383 279.775 72.7641 284.458 77.6705C285.35 79.6776 285.573 81.2387 285.127 82.3538C284.681 83.4689 284.124 84.4725 283.455 85.3645C283.232 85.5875 283.12 85.8106 283.12 86.0336C280.221 85.8106 277.656 86.0336 275.426 86.7026C273.419 87.1487 271.524 87.7062 269.739 88.3752C268.178 89.0443 267.063 89.4903 266.394 89.7133C265.948 99.749 265.614 109.339 265.391 118.482C265.168 127.403 264.61 136.435 263.718 145.579C263.049 154.499 261.376 163.978 258.7 174.013C256.247 174.682 253.013 174.571 248.999 173.679C245.208 172.564 241.862 170.779 238.963 168.326C236.287 165.873 235.283 163.085 235.953 159.963C226.363 161.078 216.55 162.082 206.514 162.974C196.479 163.643 186.666 164.535 177.076 165.65C177.299 166.542 177.857 167.323 178.749 167.992C179.864 168.661 180.979 169.33 182.094 169.999C183.655 171.114 185.216 172.341 186.778 173.679C188.339 174.794 188.896 176.466 188.45 178.697C190.011 178.697 191.572 178.697 193.134 178.697C194.695 178.474 196.367 178.362 198.151 178.362C203.727 178.362 208.856 178.139 213.539 177.693C218.446 177.247 220.787 175.686 220.564 173.01C227.032 173.01 234.28 174.236 242.308 176.689C250.56 178.92 258.143 180.815 265.056 182.376C264.833 185.052 265.502 187.283 267.063 189.067C268.847 190.628 270.631 191.966 272.416 193.081C273.531 193.973 274.534 194.754 275.426 195.423C276.318 196.092 276.764 196.872 276.764 197.764C276.764 200.218 275.984 202.002 274.423 203.117C273.085 204.009 271.189 204.678 268.736 205.124C265.837 205.347 262.603 205.57 259.035 205.793C255.466 205.793 252.01 206.35 248.664 207.466C247.549 210.811 246.1 213.821 244.316 216.498C242.531 219.174 240.97 222.073 239.632 225.195C247.884 229.656 256.581 233.335 265.725 236.235C275.092 238.911 284.012 242.144 292.487 245.936C299.177 248.835 305.422 252.292 311.22 256.306C317.019 260.097 321.702 265.227 325.27 271.694ZM123.218 101.422C119.65 109.004 114.855 115.472 108.834 120.824C102.812 126.176 97.4599 132.086 92.7765 138.554C93.8916 139 94.6722 139.78 95.1182 140.895C95.5642 142.01 96.0103 143.126 96.4563 144.241C94.8952 154.722 94.0031 164.981 93.7801 175.017C93.7801 184.829 93.8916 194.642 94.1146 204.455C94.1146 206.239 94.1146 208.023 94.1146 209.807C94.3376 211.368 94.4491 213.041 94.4491 214.825C94.6722 225.976 94.7837 237.238 94.7837 248.612C94.7837 259.986 93.6686 271.583 91.4384 283.402C85.194 283.179 80.3992 281.395 77.0539 278.05C73.9317 274.928 71.2555 271.248 69.0254 267.011C66.7952 262.773 64.0075 259.094 60.6623 255.971C64.8996 252.403 67.6873 246.939 69.0254 239.58C70.5865 231.997 71.4785 223.969 71.7016 215.494C71.7016 211.48 71.59 207.466 71.367 203.451C71.367 199.437 71.367 195.534 71.367 191.743C71.144 187.952 70.921 184.383 70.698 181.038C70.698 177.47 70.8095 174.348 71.0325 171.672C65.0111 177.916 59.8817 184.16 55.6444 190.405C51.4071 196.649 46.7238 202.559 41.5945 208.135C37.3572 212.818 32.4508 217.055 26.8754 220.846C21.3 224.415 14.275 227.314 5.80045 229.544C5.80045 228.429 5.0199 227.537 3.45879 226.868C2.78974 226.422 2.1207 225.976 1.45165 225.53C0.782603 225.084 0.559587 223.969 0.782603 222.185C3.23577 217.501 6.91553 212.929 11.8219 208.469C16.9512 204.009 20.9655 199.883 23.8647 196.092C26.0949 193.193 27.656 190.851 28.548 189.067C29.4401 187.283 30.4437 185.387 31.5588 183.38C32.8968 181.373 34.904 178.697 37.5802 175.351C43.6016 168.215 49.0655 160.744 53.9718 152.938C58.8782 145.133 64.119 137.104 69.6944 128.853C73.4857 123.054 76.7194 117.813 79.3956 113.13C82.0718 108.447 84.748 102.648 87.4242 95.7347C86.9781 94.6197 86.3091 93.6161 85.417 92.724C84.525 91.832 83.6329 91.0514 82.7408 90.3824C81.8488 89.4903 81.0682 88.7098 80.3992 88.0407C79.9531 87.3717 79.7301 86.7026 79.7301 86.0336C84.4134 83.5804 89.8773 82.9113 96.1218 84.0264C102.366 84.9185 108.053 87.0371 113.182 90.3824C118.535 93.5046 121.88 97.1844 123.218 101.422ZM236.956 143.237C236.733 141.007 236.51 138.442 236.287 135.543C236.064 132.421 235.953 129.076 235.953 125.507C235.73 118.148 235.283 110.231 234.614 101.756C233.945 93.2816 232.273 86.0336 229.597 80.0122C221.791 80.4582 213.205 81.3502 203.838 82.6883C194.695 83.8034 186.555 85.6991 179.418 88.3752C180.31 91.0514 180.533 94.5082 180.087 98.7455C179.641 102.983 179.084 106.663 178.415 109.785C189.565 108.001 199.936 107.778 209.525 109.116C219.115 110.231 226.586 114.022 231.938 120.489C231.492 120.489 230.823 120.601 229.931 120.824C222.795 122.385 214.32 123.946 204.507 125.507C194.918 127.068 186.22 126.957 178.415 125.173V147.92C189.119 146.582 199.155 145.802 208.522 145.579C218.111 145.356 227.589 144.575 236.956 143.237ZM130.912 18.4599C130.689 22.0281 129.686 25.1503 127.901 27.8265C126.34 30.5027 124.222 33.0674 121.546 35.5205C117.308 39.0888 112.29 42.5455 106.492 45.8908C100.917 49.013 95.8987 52.9158 91.4384 57.5991C87.6472 61.6134 82.9638 65.9622 77.3885 70.6455C72.0361 75.3288 66.3492 77.6705 60.3278 77.6705C55.8675 77.6705 51.7417 76.1094 47.9504 72.9872C57.094 65.1816 65.3456 56.8185 72.7051 47.8979C80.0646 38.7543 87.9817 30.0567 96.4563 21.8051C96.2333 18.6829 94.8952 16.6757 92.442 15.7837C89.9888 14.6686 87.9817 13.1075 86.4206 11.1003C85.9746 10.4313 86.0861 9.87375 86.7551 9.42772C87.4242 8.53566 87.6472 7.53209 87.4242 6.41701C90.9924 5.97098 94.6722 5.63646 98.4634 5.41343C102.255 5.19042 105.823 5.19042 109.168 5.41343C110.06 5.63646 110.952 6.08249 111.844 6.75153C112.736 7.19757 113.628 7.6436 114.521 8.08963C115.859 9.2047 117.308 10.0968 118.869 10.7658C120.43 11.4349 122.326 11.5464 124.556 11.1003C125.002 12.6615 125.783 14.2226 126.898 15.7837C128.236 17.1218 129.574 18.0138 130.912 18.4599ZM201.162 229.879C198.932 224.08 195.587 219.508 191.126 216.163C186.666 212.595 181.983 209.25 177.076 206.127C170.609 217.501 163.026 227.983 154.329 237.573C145.854 246.939 137.603 256.64 129.574 266.676C140.056 266.676 148.642 265.561 155.332 263.331C164.699 260.209 172.505 255.748 178.749 249.95C184.993 243.929 192.464 237.238 201.162 229.879ZM217.888 194.419C216.996 194.419 215.993 194.419 214.878 194.419C213.762 194.419 212.536 194.308 211.198 194.085C207.63 194.085 203.727 194.085 199.489 194.085C195.475 193.862 191.907 194.085 188.785 194.754C184.101 195.423 181.425 197.207 180.756 200.106C186.332 201.667 191.461 203.786 196.144 206.462C200.828 208.915 205.957 210.811 211.532 212.149C214.655 207.689 216.773 201.779 217.888 194.419ZM634.37 175.017C633.255 175.909 631.025 176.912 627.679 178.028C624.334 179.143 620.543 180.258 616.306 181.373C612.291 182.488 608.723 183.603 605.601 184.718C603.148 195.423 601.475 206.908 600.583 219.174C599.691 231.44 599.133 243.594 598.91 255.637C598.687 267.457 598.13 278.161 597.238 287.751C592.108 288.643 587.983 288.197 584.86 286.413C581.738 284.852 578.393 282.399 574.825 279.054C573.933 278.161 572.929 277.269 571.814 276.377C570.699 275.485 569.584 274.593 568.469 273.701C555.98 272.809 543.826 272.586 532.006 273.032C520.186 273.701 507.92 274.37 495.208 275.039C491.194 275.485 487.18 275.82 483.165 276.043C479.151 276.266 475.025 276.489 470.788 276.712C469.896 277.381 469.45 278.385 469.45 279.723C469.45 281.284 469.561 282.845 469.784 284.406C469.784 285.298 469.784 286.19 469.784 287.082C470.007 288.197 470.007 289.089 469.784 289.758C463.317 291.542 458.076 290.65 454.062 287.082C450.27 283.737 446.925 280.169 444.026 276.377C443.58 275.708 443.022 275.039 442.353 274.37C441.907 273.701 441.461 273.032 441.015 272.363C441.015 270.579 441.015 268.795 441.015 267.011C441.238 265.227 441.461 263.442 441.684 261.658C442.353 249.839 442.799 237.684 443.022 225.195C443.469 212.483 443.022 199.772 441.684 187.06C438.116 182.599 433.879 179.031 428.972 176.355C424.066 173.679 419.829 170.222 416.261 165.985C417.822 165.316 419.94 164.424 422.617 163.308C425.293 161.97 428.08 160.855 430.98 159.963C437.447 157.956 444.472 156.953 452.055 156.953C459.86 156.953 466.885 156.172 473.13 154.611C477.59 153.496 481.493 151.6 484.838 148.924C488.406 146.248 490.748 142.233 491.863 136.881C488.964 137.327 485.061 136.881 480.155 135.543C475.471 133.982 471.68 131.752 468.781 128.853C468.781 123.723 469.004 118.482 469.45 113.13C470.119 107.778 470.899 102.314 471.791 96.7383C472.907 86.9256 473.799 77.113 474.468 67.3003C475.36 57.2646 474.802 47.6749 472.795 38.5313C459.86 38.7543 447.817 40.0924 436.667 42.5455C425.739 44.9987 414.365 47.0058 402.545 48.5669C398.977 44.3297 395.074 40.4269 390.837 36.8586C386.823 33.2904 383.812 28.6071 381.805 22.8087C384.704 21.0245 387.715 20.3555 390.837 20.8015C394.182 21.2475 397.527 21.9166 400.873 22.8087C402.657 23.2547 404.441 23.7007 406.225 24.1468C408.009 24.5928 409.793 24.8158 411.577 24.8158C417.599 25.0388 423.732 24.5928 429.976 23.4777C436.22 22.3626 442.353 21.136 448.375 19.798C451.943 19.1289 455.4 18.4598 458.745 17.7908C462.313 17.1218 465.77 16.5642 469.115 16.1182C470.23 15.4491 471.122 14.4456 471.791 13.1075C472.461 11.7694 473.464 10.7658 474.802 10.0968C487.068 10.9888 496.992 14.2226 504.575 19.798C512.157 25.3733 518.736 31.9523 524.312 39.5348C522.528 41.0959 520.186 41.988 517.287 42.211C514.61 42.434 512.046 43.1031 509.593 44.2182C507.139 52.6927 505.244 61.7249 503.906 71.3145C502.791 80.9042 501.787 90.0478 500.895 98.7455C500.003 107.22 498.442 114.357 496.212 120.155C499.334 121.716 502.902 123.054 506.916 124.169C510.931 125.284 514.722 126.734 518.29 128.518C522.081 130.302 525.092 132.978 527.322 136.547C524.869 139.223 522.081 141.676 518.959 143.906C515.837 146.136 512.938 148.478 510.262 150.931C516.506 152.269 522.305 152.938 527.657 152.938C533.009 152.938 538.808 152.715 545.052 152.269C547.728 152.269 550.627 152.158 553.75 151.935C557.095 151.712 560.552 151.6 564.12 151.6C566.127 151.154 567.688 150.374 568.803 149.258C569.918 147.92 571.033 146.694 572.148 145.579C585.529 145.133 597.349 148.032 607.608 154.276C617.867 160.298 626.787 167.211 634.37 175.017ZM574.825 225.53C574.156 225.753 573.598 227.202 573.152 229.879C572.706 232.555 572.26 235.231 571.814 237.907C571.591 240.36 571.033 241.698 570.141 241.921C571.702 229.433 572.148 216.944 571.479 204.455C571.033 191.743 570.141 179.254 568.803 166.988C560.552 167.88 550.851 168.215 539.7 167.992C528.549 167.769 517.51 168.103 506.582 168.995C499.222 169.441 492.197 170.445 485.507 172.006C478.816 173.344 472.907 175.463 467.777 178.362C468.892 179.477 469.338 180.927 469.115 182.711C469.115 184.272 469.004 186.056 468.781 188.063C468.335 190.293 468 192.747 467.777 195.423C467.777 197.876 468.223 200.552 469.115 203.451C474.914 204.12 480.935 204.232 487.18 203.786C493.647 203.117 499.891 202.336 505.913 201.444C507.92 201.221 509.816 200.998 511.6 200.775C513.384 200.552 515.168 200.329 516.952 200.106C527.211 198.991 536.578 199.214 545.052 200.775C553.527 202.113 560.106 207.131 564.789 215.829C558.322 216.052 551.074 216.721 543.045 217.836C535.016 218.951 526.653 220.066 517.956 221.181C509.704 222.073 501.341 222.854 492.866 223.523C484.615 224.192 476.363 224.192 468.112 223.523C468.781 230.436 469.004 236.569 468.781 241.921C468.558 247.051 467.666 251.623 466.105 255.637C469.004 257.644 472.461 258.648 476.475 258.648C480.489 258.648 484.838 258.313 489.521 257.644C491.082 257.421 492.643 257.198 494.205 256.975C495.989 256.752 497.773 256.64 499.557 256.64C505.578 256.194 511.823 255.971 518.29 255.971C524.758 255.971 531.337 256.083 538.027 256.306C543.826 256.306 549.512 256.306 555.088 256.306C560.886 256.306 566.462 256.194 571.814 255.971C571.814 254.187 571.925 252.18 572.148 249.95C572.595 247.497 573.041 244.932 573.487 242.256C573.933 238.911 574.379 235.677 574.825 232.555C575.271 229.433 575.271 227.091 574.825 225.53ZM662.135 41.8765C660.574 44.1066 657.34 45.6677 652.434 46.5598C647.751 47.2289 644.517 47.6749 642.733 47.8979C640.503 55.4804 638.607 63.8435 637.046 72.9872C635.708 81.9078 634.147 91.0514 632.363 100.418C630.802 109.562 628.683 118.259 626.007 126.511C623.777 125.173 622.327 125.173 621.658 126.511C620.989 127.849 620.543 129.745 620.32 132.198C620.097 132.198 619.651 132.198 618.982 132.198C618.09 132.421 617.198 132.644 616.306 132.867C615.637 133.09 615.414 133.759 615.637 134.874C611.399 134.205 607.608 132.086 604.263 128.518C601.141 124.95 599.133 120.824 598.241 116.141C597.572 111.234 598.799 106.774 601.921 102.76C602.367 101.422 602.479 100.418 602.256 99.749C602.256 99.08 602.033 98.4109 601.587 97.7419C601.141 96.8498 600.806 96.1808 600.583 95.7347C603.705 87.9292 605.824 78.5625 606.939 67.6348C608.054 56.707 608.835 44.7757 609.281 31.8408C605.489 31.8408 601.252 32.2868 596.569 33.1789C591.885 33.8479 586.979 34.6285 581.85 35.5205C578.058 36.1896 574.156 36.9701 570.141 37.8622C566.127 38.5312 562.224 38.9773 558.433 39.2003C553.527 39.4233 548.955 39.2003 544.718 38.5313C540.48 37.8622 537.135 36.1896 534.682 33.5134C534.013 32.8444 533.344 31.5063 532.675 29.4991C532.006 27.269 531.448 25.8194 531.002 25.1503C530.556 24.2583 529.999 23.5892 529.329 23.1432C528.66 22.4741 527.991 21.8051 527.322 21.136C525.984 20.021 524.981 18.9059 524.312 17.7908C523.643 16.6757 523.977 15.2261 525.315 13.442C531.783 14.7801 539.365 15.6722 548.063 16.1182C556.983 16.5642 566.127 16.6757 575.494 16.4527C585.083 16.2297 594.004 15.7837 602.256 15.1146C604.04 14.8916 606.158 13.9995 608.612 12.4384C611.065 10.8773 613.183 9.42771 614.967 8.08963C622.104 9.65074 628.237 11.6579 633.366 14.111C638.496 16.5642 643.848 19.9095 649.423 24.1468C649.2 26.1539 649.646 27.8265 650.761 29.1646C652.1 30.2797 653.549 31.2833 655.11 32.1753C656.671 33.2904 658.121 34.6285 659.459 36.1896C661.02 37.5277 661.912 39.4233 662.135 41.8765ZM465.101 116.81C459.749 119.709 452.278 122.943 442.688 126.511C433.098 130.079 423.509 131.975 413.919 132.198C407.675 132.198 401.765 131.194 396.189 129.187C390.614 126.957 386.042 123.054 382.474 117.479C388.718 117.033 394.517 116.141 399.869 114.803C405.444 113.241 410.908 111.68 416.261 110.119C421.39 108.558 426.296 107.22 430.98 106.105C435.886 104.767 440.792 104.098 445.699 104.098C447.929 105.213 449.936 106.551 451.72 108.112C453.727 109.673 456.292 110.677 459.414 111.123C460.529 112.015 461.644 112.795 462.759 113.464C463.874 114.134 464.655 115.249 465.101 116.81ZM587.871 105.436C587.648 108.335 587.202 110.231 586.533 111.123C586.087 112.015 585.864 113.688 585.864 116.141C578.281 118.817 570.253 120.712 561.778 121.828C553.527 122.72 545.721 122.274 538.362 120.489C533.901 119.374 529.664 117.59 525.65 115.137C521.858 112.684 518.513 109.562 515.614 105.77C521.412 105.324 527.434 104.321 533.678 102.76C540.146 101.199 546.502 99.972 552.746 99.08C559.214 97.9649 565.458 97.7419 571.479 98.4109C577.501 99.08 582.965 101.422 587.871 105.436ZM457.072 83.6919C449.044 86.3681 440.458 88.4867 431.314 90.0478C422.394 91.609 413.919 91.4975 405.89 89.7133C397.862 87.7062 391.171 83.1344 385.819 75.9979C392.509 73.3217 400.315 71.3145 409.236 69.9764C418.156 68.6384 426.965 68.8614 435.663 70.6455C444.361 72.4296 451.497 76.7784 457.072 83.6919ZM594.562 78.005C589.432 79.7891 583.745 81.1272 577.501 82.0193C571.256 82.9114 564.9 83.2459 558.433 83.0229C551.52 82.5768 544.829 81.2387 538.362 79.0086C532.117 76.5554 526.765 72.8757 522.305 67.9693C525.427 67.9693 528.66 67.6348 532.006 66.9657C535.351 66.0737 538.696 65.1816 542.041 64.2896C545.387 63.3975 548.62 62.6169 551.743 61.9479C554.865 61.0558 557.987 60.6098 561.109 60.6098C566.462 60.3868 571.479 61.6134 576.163 64.2896C580.846 66.7427 584.86 69.4189 588.206 72.3181C591.551 74.9943 593.669 76.8899 594.562 78.005Z" fill="black"/>
</svg>
