<svg width="1809" height="421" viewBox="0 0 1809 421" fill="none" xmlns="http://www.w3.org/2000/svg">
<path d="M545.772 166.803C545.549 163.68 545.437 160.893 545.437 158.439C545.66 155.986 545.549 152.864 545.103 149.073C545.103 148.404 544.211 148.069 542.427 148.069C540.643 147.846 538.635 147.846 536.405 148.069C534.175 148.292 531.945 148.627 529.715 149.073C527.485 149.296 525.924 149.407 525.031 149.407C522.355 149.63 520.125 149.853 518.341 150.076C516.557 150.076 514.884 150.076 513.323 150.076C511.762 150.076 510.089 150.076 508.305 150.076C506.521 149.853 504.291 149.63 501.615 149.407C500.723 178.845 500.5 207.28 500.946 234.711C501.615 262.142 501.949 289.573 501.949 317.004C507.302 316.558 511.762 316.446 515.33 316.669C518.899 316.892 522.132 317.004 525.031 317.004C527.931 317.227 530.718 317.227 533.395 317.004C536.294 316.781 539.639 316.112 543.43 314.996V313.658C544.322 306.299 544.768 298.939 544.768 291.58C544.768 284.22 544.545 276.861 544.099 269.501C543.876 261.919 543.653 254.448 543.43 247.088C543.207 239.506 543.319 231.812 543.765 224.006C544.211 217.985 545.772 213.524 548.448 210.625C551.124 207.503 554.135 205.496 557.48 204.604C560.825 203.489 564.171 203.266 567.516 203.935C571.084 204.381 573.76 205.05 575.545 205.942C575.768 206.165 575.991 206.276 576.214 206.276C576.437 206.276 576.66 206.388 576.883 206.611C578.667 207.949 580.005 209.845 580.897 212.298C582.012 214.751 582.793 217.539 583.239 220.661C583.908 223.783 584.354 227.017 584.577 230.362C584.8 233.484 585.023 236.383 585.246 239.06C585.692 245.081 585.915 251.548 585.915 258.462C586.138 265.375 586.138 272.289 585.915 279.202C585.915 286.116 585.915 292.806 585.915 299.274C585.915 305.741 586.138 311.54 586.584 316.669C594.389 316.669 601.303 316.669 607.324 316.669C613.569 316.892 620.594 316.446 628.399 315.331C627.953 308.64 627.73 300.946 627.73 292.249C627.953 283.328 628.176 274.185 628.399 264.818C628.622 255.228 628.845 245.639 629.068 236.049C629.291 226.236 629.291 216.981 629.068 208.283C631.075 206.722 633.194 205.607 635.424 204.938C637.877 204.046 640.219 203.6 642.449 203.6C644.902 203.6 647.133 203.823 649.14 204.269C651.147 204.715 652.819 205.273 654.158 205.942C654.381 206.165 654.604 206.276 654.827 206.276C655.05 206.276 655.273 206.388 655.496 206.611C657.28 207.949 658.618 209.845 659.51 212.298C660.625 214.751 661.406 217.539 661.852 220.661C662.521 223.783 662.967 227.017 663.19 230.362C663.413 233.484 663.636 236.383 663.859 239.06C664.305 245.081 664.528 251.548 664.528 258.462C664.751 265.375 664.751 272.289 664.528 279.202C664.528 286.116 664.528 292.806 664.528 299.274C664.528 305.741 664.751 311.54 665.197 316.669C673.002 316.669 679.916 316.669 685.937 316.669C692.182 316.892 699.207 316.446 707.012 315.331C706.566 307.748 706.455 298.939 706.678 288.904C706.901 278.868 707.124 268.498 707.347 257.793C707.57 246.865 707.681 236.16 707.681 225.679C707.904 214.974 707.793 205.161 707.347 196.241C707.124 187.32 706.343 179.737 705.005 173.493C703.89 167.026 702.217 162.788 699.987 160.781C695.304 156.767 690.063 153.979 684.265 152.418C678.466 150.857 672.445 150.188 666.2 150.411C660.179 150.634 654.269 151.749 648.471 153.756C642.672 155.763 637.431 158.439 632.748 161.785C631.633 162.677 630.295 163.569 628.734 164.461C627.173 165.13 625.835 165.799 624.719 166.468C623.604 163.792 622.489 161.896 621.374 160.781C616.691 156.767 611.45 153.979 605.652 152.418C599.853 150.857 593.832 150.188 587.587 150.411C581.566 150.634 575.656 151.749 569.858 153.756C564.059 155.763 558.818 158.439 554.135 161.785C553.02 162.677 551.57 163.569 549.786 164.461C548.225 165.353 546.887 166.134 545.772 166.803ZM881.832 149.407C874.696 148.961 868.34 148.627 862.764 148.404C857.412 148.181 852.84 147.958 849.049 147.735C848.38 147.735 847.153 147.735 845.369 147.735C843.585 147.735 841.801 147.735 840.017 147.735C838.232 147.512 836.56 147.512 834.999 147.735C833.661 147.735 832.992 147.846 832.992 148.069C832.992 150.745 832.657 153.422 831.988 156.098C831.542 158.551 831.43 161.562 831.654 165.13C830.092 161.339 828.197 158.439 825.967 156.432C823.736 154.202 821.172 152.641 818.273 151.749C815.373 150.634 812.14 150.076 808.571 150.076C805.226 149.853 801.546 149.742 797.532 149.742C789.727 149.965 782.367 152.084 775.454 156.098C768.54 159.889 762.519 165.241 757.389 172.155C752.483 178.845 748.58 186.874 745.681 196.241C742.782 205.607 741.332 215.866 741.332 227.017C741.332 235.937 742.224 245.639 744.008 256.12C746.016 266.602 749.026 276.303 753.041 285.224C757.055 294.144 762.073 301.615 768.094 307.637C774.339 313.658 781.81 316.669 790.507 316.669C798.313 316.669 806.23 314.773 814.258 310.982C822.51 307.191 829.312 302.619 834.664 297.267C834.664 299.497 834.441 301.392 833.995 302.954C833.549 304.515 833.326 306.522 833.326 308.975C833.326 310.759 833.549 312.32 833.995 313.658C834.664 314.996 835.779 315.888 837.34 316.335C839.794 316.335 842.135 316.223 844.365 316C846.819 315.554 849.272 315.331 851.725 315.331C855.293 315.331 858.861 315.554 862.43 316C866.221 316.223 869.901 316.335 873.469 316.335H877.483C880.159 315.888 881.497 314.216 881.497 311.317C881.721 308.417 881.832 305.518 881.832 302.619C883.393 278.756 883.728 255.228 882.836 232.035C881.944 208.618 881.832 184.867 882.501 160.781V157.436C882.501 156.098 882.39 154.76 882.167 153.422C882.167 152.084 882.055 150.745 881.832 149.407ZM784.486 215.978C785.601 210.402 788.723 205.496 793.852 201.258C799.205 196.798 806.453 194.568 815.596 194.568C820.28 194.568 823.736 194.903 825.967 195.572C828.42 196.241 830.092 197.802 830.984 200.255C832.1 202.708 832.657 206.276 832.657 210.96C832.88 215.42 832.992 221.553 832.992 229.358C832.992 235.603 832.88 241.29 832.657 246.419C832.657 251.325 831.988 255.563 830.65 259.131C829.535 262.476 827.528 265.152 824.629 267.16C821.952 268.944 817.827 269.836 812.251 269.836C802.884 269.836 795.525 266.379 790.173 259.466C785.043 252.329 782.479 243.743 782.479 233.707C782.479 230.808 782.59 227.909 782.813 225.01C783.036 221.887 783.594 218.877 784.486 215.978ZM967.331 166.803C967.108 163.68 966.997 160.893 966.997 158.439C967.22 155.986 967.108 152.864 966.662 149.073C966.662 148.404 965.77 148.069 963.986 148.069C962.202 147.846 960.195 147.846 957.965 148.069C955.735 148.292 953.505 148.627 951.274 149.073C949.044 149.296 947.483 149.407 946.591 149.407C943.915 149.63 941.685 149.853 939.901 150.076C938.116 150.076 936.444 150.076 934.883 150.076C933.322 150.076 931.649 150.076 929.865 150.076C928.081 149.853 925.851 149.63 923.174 149.407C922.282 178.845 922.059 207.28 922.505 234.711C923.174 262.142 923.509 289.573 923.509 317.004C928.861 316.558 933.322 316.446 936.89 316.669C940.458 316.892 943.692 317.004 946.591 317.004C949.49 317.227 952.278 317.227 954.954 317.004C957.853 316.781 961.199 316.112 964.99 314.996V313.658C965.882 306.299 966.328 298.939 966.328 291.58C966.328 284.22 966.105 276.861 965.659 269.501C965.436 261.919 965.213 254.448 964.99 247.088C964.767 239.506 964.878 231.812 965.324 224.006C965.77 217.985 967.331 213.524 970.008 210.625C972.684 207.503 975.695 205.496 979.04 204.604C982.385 203.489 985.73 203.266 989.075 203.935C992.644 204.381 995.32 205.05 997.104 205.942C997.327 206.165 997.55 206.276 997.773 206.276C997.996 206.276 998.219 206.388 998.442 206.611C1000.23 207.949 1001.56 209.845 1002.46 212.298C1003.57 214.751 1004.35 217.539 1004.8 220.661C1005.47 223.783 1005.91 227.017 1006.14 230.362C1006.36 233.484 1006.58 236.383 1006.81 239.06C1007.25 245.081 1007.47 251.548 1007.47 258.462C1007.7 265.375 1007.7 272.289 1007.47 279.202C1007.47 286.116 1007.47 292.806 1007.47 299.274C1007.47 305.741 1007.7 311.54 1008.14 316.669C1015.95 316.669 1022.86 316.669 1028.88 316.669C1035.13 316.892 1042.15 316.446 1049.96 315.331C1049.51 307.748 1049.4 298.939 1049.62 288.904C1049.85 278.868 1050.07 268.498 1050.29 257.793C1050.52 246.865 1050.63 236.16 1050.63 225.679C1050.85 214.974 1050.74 205.161 1050.29 196.241C1050.07 187.32 1049.29 179.737 1047.95 173.493C1046.84 167.026 1045.16 162.788 1042.93 160.781C1038.25 156.767 1033.01 153.979 1027.21 152.418C1021.41 150.857 1015.39 150.188 1009.15 150.411C1003.13 150.634 997.216 151.749 991.417 153.756C985.619 155.763 980.378 158.439 975.695 161.785C974.579 162.677 973.13 163.569 971.346 164.461C969.785 165.353 968.447 166.134 967.331 166.803ZM1130.31 232.035C1132.54 232.481 1136.11 232.815 1141.01 233.038C1145.92 233.261 1151.38 233.373 1157.41 233.373C1163.65 233.373 1170.12 233.261 1176.81 233.038C1183.5 232.815 1189.74 232.481 1195.54 232.035C1201.56 231.589 1206.69 231.143 1210.93 230.697C1215.39 230.251 1218.4 229.804 1219.96 229.358C1220.63 219.992 1220.63 210.737 1219.96 201.593C1219.29 192.449 1217.29 184.086 1213.94 176.504C1210.82 168.921 1206.13 162.454 1199.89 157.101C1193.65 151.749 1185.39 148.181 1175.14 146.397C1167.11 144.39 1158.86 143.497 1150.38 143.72C1141.91 143.943 1133.88 145.282 1126.3 147.735C1118.71 149.965 1111.91 153.422 1105.89 158.105C1099.87 162.565 1095.41 168.029 1092.51 174.497C1089.83 181.856 1088.05 189.439 1087.16 197.244C1086.49 204.827 1085.82 212.744 1085.15 220.995C1084.7 230.139 1084.93 239.283 1085.82 248.426C1086.71 257.57 1088.38 266.268 1090.84 274.519C1093.29 282.548 1096.52 290.019 1100.54 296.932C1104.55 303.623 1109.57 309.087 1115.59 313.324C1120.94 316.446 1126.74 318.453 1132.99 319.345C1139.23 319.345 1146.03 319.568 1153.39 320.014C1160.97 320.46 1168.33 320.46 1175.47 320.014C1182.61 319.568 1189.19 318.23 1195.21 316C1201.23 313.77 1206.13 309.979 1209.93 304.626C1211.49 303.288 1212.71 300.946 1213.61 297.601C1214.72 294.033 1215.61 289.907 1216.28 285.224C1216.95 280.318 1217.51 275.077 1217.95 269.501C1218.4 263.926 1218.85 258.239 1219.29 252.441C1216.84 251.772 1213.72 251.437 1209.93 251.437C1206.13 251.214 1202.12 251.214 1197.88 251.437C1193.87 251.66 1189.97 251.883 1186.18 252.106C1182.38 252.106 1179.37 251.995 1177.14 251.772C1177.59 260.915 1176.14 267.829 1172.79 272.512C1169.67 276.972 1165.77 279.648 1161.09 280.541C1156.4 281.433 1151.61 280.652 1146.7 278.199C1141.79 275.746 1138 271.954 1135.33 266.825C1132.87 262.811 1131.42 258.685 1130.98 254.448C1130.76 250.21 1130.53 244.747 1130.31 238.056V232.035ZM1170.79 180.184C1174.8 182.191 1177.92 185.201 1180.15 189.216C1182.61 193.23 1183.83 197.467 1183.83 201.928C1183.83 203.712 1183.83 204.938 1183.83 205.607C1183.83 206.053 1183.16 206.388 1181.83 206.611C1180.71 206.611 1178.7 206.499 1175.8 206.276C1172.91 206.053 1168.56 205.942 1162.76 205.942C1154.28 205.942 1147.82 206.053 1143.36 206.276C1139.12 206.276 1136 206.165 1133.99 205.942C1131.98 205.496 1130.87 204.827 1130.64 203.935C1130.64 202.82 1130.87 201.035 1131.31 198.582C1131.76 195.683 1132.43 192.895 1133.32 190.219C1134.44 187.543 1136 185.201 1138 183.194C1140.01 181.187 1142.69 179.626 1146.03 178.511C1149.38 177.396 1153.73 176.838 1159.08 176.838C1161.53 176.838 1163.65 177.173 1165.43 177.842C1167.22 178.288 1169 179.068 1170.79 180.184ZM1301.7 73.136C1298.8 72.69 1295.45 72.467 1291.66 72.467C1287.87 72.467 1283.86 72.5785 1279.62 72.8015C1275.61 72.8015 1271.48 72.913 1267.24 73.136C1263.23 73.136 1259.55 73.136 1256.2 73.136C1256.43 113.725 1256.09 153.979 1255.2 193.899C1254.31 233.819 1254.64 274.519 1256.2 316C1259.55 316.446 1263.23 316.669 1267.24 316.669C1271.48 316.669 1275.61 316.558 1279.62 316.335C1283.63 316.112 1287.43 316 1290.99 316C1294.78 315.777 1297.91 315.777 1300.36 316C1301.25 311.094 1301.81 305.741 1302.03 299.943C1302.26 293.921 1302.37 288.012 1302.37 282.213C1302.37 276.415 1302.26 270.839 1302.03 265.487C1301.81 260.135 1301.7 255.451 1301.7 251.437C1305.49 256.343 1308.83 261.473 1311.73 266.825C1314.86 272.177 1317.76 277.641 1320.43 283.217C1323.11 288.569 1325.78 294.033 1328.46 299.608C1331.36 305.184 1334.48 310.648 1337.83 316C1341.17 316.669 1345.19 317.115 1349.87 317.338C1354.78 317.561 1359.79 317.561 1364.92 317.338C1370.05 317.115 1374.96 316.781 1379.64 316.335C1384.55 316.112 1388.56 316 1391.68 316C1383.21 298.828 1373.84 282.325 1363.58 266.491C1353.55 250.433 1343.51 234.265 1333.48 217.985C1342.84 205.496 1352.32 193.118 1361.91 180.853C1371.5 168.364 1380.42 155.763 1388.67 143.051C1385.55 142.828 1381.54 142.94 1376.63 143.386C1371.72 143.609 1366.71 143.832 1361.58 144.055C1356.67 144.055 1351.88 144.055 1347.19 144.055C1342.51 143.832 1338.72 143.163 1335.82 142.048C1332.47 145.839 1329.46 149.853 1326.79 154.091C1324.33 158.328 1321.88 162.565 1319.43 166.803C1316.97 170.817 1314.3 174.831 1311.4 178.845C1308.72 182.86 1305.49 186.539 1301.7 189.885C1301.03 184.755 1300.81 178.065 1301.03 169.813C1301.48 161.562 1301.7 153.756 1301.7 146.397V73.136ZM1542.65 149.407C1535.51 148.961 1529.15 148.627 1523.58 148.404C1518.23 148.181 1513.65 147.958 1509.86 147.735C1509.19 147.735 1507.97 147.735 1506.18 147.735C1504.4 147.735 1502.61 147.735 1500.83 147.735C1499.05 147.512 1497.37 147.512 1495.81 147.735C1494.47 147.735 1493.81 147.846 1493.81 148.069C1493.81 150.745 1493.47 153.422 1492.8 156.098C1492.36 158.551 1492.24 161.562 1492.47 165.13C1490.91 161.339 1489.01 158.439 1486.78 156.432C1484.55 154.202 1481.99 152.641 1479.09 151.749C1476.19 150.634 1472.95 150.076 1469.39 150.076C1466.04 149.853 1462.36 149.742 1458.35 149.742C1450.54 149.965 1443.18 152.084 1436.27 156.098C1429.35 159.889 1423.33 165.241 1418.2 172.155C1413.3 178.845 1409.39 186.874 1406.5 196.241C1403.6 205.607 1402.15 215.866 1402.15 227.017C1402.15 235.937 1403.04 245.639 1404.82 256.12C1406.83 266.602 1409.84 276.303 1413.85 285.224C1417.87 294.144 1422.89 301.615 1428.91 307.637C1435.15 313.658 1442.62 316.669 1451.32 316.669C1459.13 316.669 1467.04 314.773 1475.07 310.982C1483.32 307.191 1490.13 302.619 1495.48 297.267C1495.48 299.497 1495.26 301.392 1494.81 302.954C1494.36 304.515 1494.14 306.522 1494.14 308.975C1494.14 310.759 1494.36 312.32 1494.81 313.658C1495.48 314.996 1496.59 315.888 1498.15 316.335C1500.61 316.335 1502.95 316.223 1505.18 316C1507.63 315.554 1510.09 315.331 1512.54 315.331C1516.11 315.331 1519.68 315.554 1523.24 316C1527.04 316.223 1530.71 316.335 1534.28 316.335H1538.3C1540.97 315.888 1542.31 314.216 1542.31 311.317C1542.53 308.417 1542.65 305.518 1542.65 302.619C1544.21 278.756 1544.54 255.228 1543.65 232.035C1542.76 208.618 1542.65 184.867 1543.32 160.781V157.436C1543.32 156.098 1543.2 154.76 1542.98 153.422C1542.98 152.084 1542.87 150.745 1542.65 149.407ZM1445.3 215.978C1446.42 210.402 1449.54 205.496 1454.67 201.258C1460.02 196.798 1467.27 194.568 1476.41 194.568C1481.09 194.568 1484.55 194.903 1486.78 195.572C1489.23 196.241 1490.91 197.802 1491.8 200.255C1492.91 202.708 1493.47 206.276 1493.47 210.96C1493.69 215.42 1493.81 221.553 1493.81 229.358C1493.81 235.603 1493.69 241.29 1493.47 246.419C1493.47 251.325 1492.8 255.563 1491.46 259.131C1490.35 262.476 1488.34 265.152 1485.44 267.16C1482.77 268.944 1478.64 269.836 1473.07 269.836C1463.7 269.836 1456.34 266.379 1450.99 259.466C1445.86 252.329 1443.29 243.743 1443.29 233.707C1443.29 230.808 1443.4 227.909 1443.63 225.01C1443.85 221.887 1444.41 218.877 1445.3 215.978ZM1628.15 166.803C1627.92 163.68 1627.81 160.893 1627.81 158.439C1628.03 155.986 1627.92 152.864 1627.48 149.073C1627.48 148.404 1626.58 148.069 1624.8 148.069C1623.02 147.846 1621.01 147.846 1618.78 148.069C1616.55 148.292 1614.32 148.627 1612.09 149.073C1609.86 149.296 1608.3 149.407 1607.41 149.407C1604.73 149.63 1602.5 149.853 1600.71 150.076C1598.93 150.076 1597.26 150.076 1595.7 150.076C1594.14 150.076 1592.46 150.076 1590.68 150.076C1588.9 149.853 1586.66 149.63 1583.99 149.407C1583.1 178.845 1582.87 207.28 1583.32 234.711C1583.99 262.142 1584.32 289.573 1584.32 317.004C1589.68 316.558 1594.14 316.446 1597.7 316.669C1601.27 316.892 1604.51 317.004 1607.41 317.004C1610.3 317.227 1613.09 317.227 1615.77 317.004C1618.67 316.781 1622.01 316.112 1625.8 314.996V313.658C1626.7 306.299 1627.14 298.939 1627.14 291.58C1627.14 284.22 1626.92 276.861 1626.47 269.501C1626.25 261.919 1626.03 254.448 1625.8 247.088C1625.58 239.506 1625.69 231.812 1626.14 224.006C1626.58 217.985 1628.15 213.524 1630.82 210.625C1633.5 207.503 1636.51 205.496 1639.85 204.604C1643.2 203.489 1646.54 203.266 1649.89 203.935C1653.46 204.381 1656.13 205.05 1657.92 205.942C1658.14 206.165 1658.36 206.276 1658.59 206.276C1658.81 206.276 1659.03 206.388 1659.26 206.611C1661.04 207.949 1662.38 209.845 1663.27 212.298C1664.39 214.751 1665.17 217.539 1665.61 220.661C1666.28 223.783 1666.73 227.017 1666.95 230.362C1667.17 233.484 1667.4 236.383 1667.62 239.06C1668.07 245.081 1668.29 251.548 1668.29 258.462C1668.51 265.375 1668.51 272.289 1668.29 279.202C1668.29 286.116 1668.29 292.806 1668.29 299.274C1668.29 305.741 1668.51 311.54 1668.96 316.669C1676.76 316.669 1683.68 316.669 1689.7 316.669C1695.94 316.892 1702.97 316.446 1710.77 315.331C1710.33 307.748 1710.22 298.939 1710.44 288.904C1710.66 278.868 1710.88 268.498 1711.11 257.793C1711.33 246.865 1711.44 236.16 1711.44 225.679C1711.67 214.974 1711.55 205.161 1711.11 196.241C1710.88 187.32 1710.1 179.737 1708.77 173.493C1707.65 167.026 1705.98 162.788 1703.75 160.781C1699.06 156.767 1693.82 153.979 1688.03 152.418C1682.23 150.857 1676.21 150.188 1669.96 150.411C1663.94 150.634 1658.03 151.749 1652.23 153.756C1646.43 155.763 1641.19 158.439 1636.51 161.785C1635.39 162.677 1633.94 163.569 1632.16 164.461C1630.6 165.353 1629.26 166.134 1628.15 166.803ZM1791.79 147.735C1784.66 147.958 1778.52 147.958 1773.39 147.735C1768.26 147.512 1764.25 147.289 1761.35 147.066C1760.24 147.066 1758.56 146.954 1756.33 146.731C1754.33 146.508 1752.88 146.508 1751.98 146.731V147.066C1750.65 160.224 1749.98 173.828 1749.98 187.878C1749.98 201.705 1750.2 215.755 1750.65 230.028C1751.09 244.3 1751.32 258.685 1751.32 273.181C1751.54 287.677 1751.09 301.95 1749.98 316C1751.54 315.554 1754.66 315.442 1759.34 315.665C1764.03 315.888 1768.93 316 1774.06 316C1779.42 316.223 1784.32 316.223 1788.78 316C1793.24 316 1796.03 315.331 1797.15 313.993C1795.58 287.008 1795.14 259.466 1795.81 231.366C1796.7 203.266 1797.26 175.723 1797.48 148.738V147.735H1791.79ZM1750.65 74.8087C1750.42 85.0674 1750.54 93.765 1750.98 100.901C1751.65 107.815 1751.98 114.505 1751.98 120.973C1756.22 120.75 1760.79 120.861 1765.7 121.307C1770.61 121.53 1775.18 121.753 1779.42 121.976C1783.88 121.976 1787.67 121.753 1790.79 121.307C1794.13 120.861 1796.25 119.969 1797.15 118.631C1797.15 115.286 1797.03 111.495 1796.81 107.257C1796.81 102.797 1796.7 98.5598 1796.48 94.5455C1796.48 90.3082 1796.36 86.517 1796.14 83.1717C1796.14 79.6035 1796.14 77.1503 1796.14 75.8122L1750.65 74.8087Z" fill="black"/>
<path d="M316.07 271.865C358.994 337.756 461.254 230.019 444.316 196.441C430.763 169.575 329.341 104.655 240.987 111.448C152.632 118.241 57.5746 173.798 84.9535 271.406C207.107 167.126 275.163 209.07 316.07 271.865Z" fill="url(#paint0_linear_1_34)"/>
<path d="M207.65 243.013C292.588 231.043 289.904 311.344 269.619 342.063C253.389 366.643 158.622 406.526 96.215 378.333C33.8077 350.14 20.8416 307.464 28.18 245.44C92.0565 372.78 120.215 255.334 207.65 243.013Z" fill="url(#paint1_linear_1_34)"/>
<defs>
<linearGradient id="paint0_linear_1_34" x1="254.305" y1="110.402" x2="269.153" y2="299.47" gradientUnits="userSpaceOnUse">
<stop stop-color="#FF4003"/>
<stop offset="1" stop-color="#DC7210"/>
</linearGradient>
<linearGradient id="paint1_linear_1_34" x1="126.554" y1="387.641" x2="168.376" y2="224.853" gradientUnits="userSpaceOnUse">
<stop stop-color="#FF4003"/>
<stop offset="1" stop-color="#DC7210"/>
</linearGradient>
</defs>
</svg>
