<svg width="1539" height="1176" viewBox="0 0 1539 1176" fill="none" xmlns="http://www.w3.org/2000/svg">
<path d="M65.5666 908.936C65.3065 905.294 65.1764 902.041 65.1764 899.179C65.4366 896.317 65.3065 892.675 64.7861 888.252C64.7861 887.471 63.7453 887.081 61.6639 887.081C59.5824 886.821 57.2407 886.821 54.6389 887.081C52.037 887.341 49.4352 887.731 46.8333 888.252C44.2315 888.512 42.4102 888.642 41.3695 888.642C38.2472 888.902 35.6454 889.162 33.5639 889.422C31.4824 889.422 29.531 889.422 27.7097 889.422C25.8885 889.422 23.9371 889.422 21.8556 889.422C19.7741 889.162 17.1723 888.902 14.05 888.642C13.0093 922.986 12.7491 956.16 13.2695 988.163C14.05 1020.17 14.4403 1052.17 14.4403 1084.17C20.6848 1083.65 25.8885 1083.52 30.0514 1083.78C34.2144 1084.04 37.987 1084.17 41.3695 1084.17C44.7519 1084.43 48.0042 1084.43 51.1264 1084.17C54.5088 1083.91 58.4116 1083.13 62.8347 1081.83V1080.27C63.8754 1071.68 64.3958 1063.1 64.3958 1054.51C64.3958 1045.92 64.1356 1037.34 63.6153 1028.75C63.3551 1019.91 63.0949 1011.19 62.8347 1002.6C62.5745 993.757 62.7046 984.78 63.225 975.674C63.7453 968.649 65.5666 963.445 68.6889 960.063C71.8111 956.42 75.3236 954.078 79.2263 953.038C83.1291 951.737 87.0319 951.477 90.9347 952.257C95.0976 952.777 98.2198 953.558 100.301 954.599C100.562 954.859 100.822 954.989 101.082 954.989C101.342 954.989 101.602 955.119 101.862 955.379C103.944 956.94 105.505 959.152 106.546 962.014C107.847 964.876 108.757 968.128 109.278 971.771C110.058 975.414 110.579 979.186 110.839 983.089C111.099 986.732 111.359 990.114 111.619 993.236C112.14 1000.26 112.4 1007.81 112.4 1015.87C112.66 1023.94 112.66 1032 112.4 1040.07C112.4 1048.14 112.4 1055.94 112.4 1063.49C112.4 1071.03 112.66 1077.8 113.18 1083.78C122.287 1083.78 130.353 1083.78 137.378 1083.78C144.663 1084.04 152.859 1083.52 161.965 1082.22C161.445 1074.41 161.185 1065.44 161.185 1055.29C161.445 1044.88 161.705 1034.22 161.965 1023.29C162.225 1012.1 162.485 1000.91 162.746 989.724C163.006 978.276 163.006 967.478 162.746 957.331C165.087 955.509 167.559 954.208 170.161 953.428C173.023 952.387 175.755 951.867 178.357 951.867C181.219 951.867 183.821 952.127 186.162 952.647C188.504 953.168 190.455 953.818 192.016 954.599C192.277 954.859 192.537 954.989 192.797 954.989C193.057 954.989 193.317 955.119 193.578 955.379C195.659 956.94 197.22 959.152 198.261 962.014C199.562 964.876 200.472 968.128 200.993 971.771C201.773 975.414 202.294 979.186 202.554 983.089C202.814 986.732 203.074 990.114 203.335 993.236C203.855 1000.26 204.115 1007.81 204.115 1015.87C204.375 1023.94 204.375 1032 204.115 1040.07C204.115 1048.14 204.115 1055.94 204.115 1063.49C204.115 1071.03 204.375 1077.8 204.896 1083.78C214.002 1083.78 222.068 1083.78 229.093 1083.78C236.378 1084.04 244.574 1083.52 253.68 1082.22C253.16 1073.37 253.03 1063.1 253.29 1051.39C253.55 1039.68 253.81 1027.58 254.071 1015.09C254.331 1002.34 254.461 989.854 254.461 977.625C254.721 965.136 254.591 953.688 254.071 943.281C253.81 932.873 252.9 924.027 251.339 916.742C250.038 909.197 248.086 904.253 245.484 901.911C240.021 897.228 233.906 893.976 227.141 892.154C220.377 890.333 213.352 889.553 206.066 889.813C199.041 890.073 192.147 891.374 185.382 893.716C178.617 896.057 172.503 899.179 167.039 903.082C165.738 904.123 164.177 905.164 162.355 906.204C160.534 906.985 158.973 907.766 157.672 908.546C156.371 905.424 155.07 903.212 153.769 901.911C148.305 897.228 142.191 893.976 135.426 892.154C128.661 890.333 121.636 889.553 114.351 889.813C107.326 890.073 100.431 891.374 93.6666 893.716C86.9018 896.057 80.7875 899.179 75.3236 903.082C74.0226 904.123 72.3314 905.164 70.25 906.204C68.4287 907.245 66.8676 908.156 65.5666 908.936ZM457.637 888.642C449.311 888.122 441.896 887.731 435.391 887.471C429.146 887.211 423.813 886.951 419.39 886.691C418.609 886.691 417.178 886.691 415.096 886.691C413.015 886.691 410.934 886.691 408.852 886.691C406.771 886.43 404.819 886.43 402.998 886.691C401.437 886.691 400.656 886.821 400.656 887.081C400.656 890.203 400.266 893.325 399.485 896.447C398.965 899.31 398.835 902.822 399.095 906.985C397.274 902.562 395.062 899.179 392.46 896.838C389.859 894.236 386.866 892.415 383.484 891.374C380.102 890.073 376.329 889.422 372.166 889.422C368.263 889.162 363.97 889.032 359.287 889.032C350.18 889.292 341.594 891.764 333.529 896.447C325.463 900.871 318.438 907.115 312.454 915.181C306.73 922.986 302.176 932.353 298.794 943.281C295.411 954.209 293.72 966.177 293.72 979.186C293.72 989.594 294.761 1000.91 296.842 1013.14C299.184 1025.37 302.697 1036.69 307.38 1047.09C312.063 1057.5 317.917 1066.22 324.942 1073.24C332.228 1080.27 340.944 1083.78 351.091 1083.78C360.197 1083.78 369.434 1081.57 378.801 1077.15C388.428 1072.72 396.363 1067.39 402.608 1061.14C402.608 1063.75 402.347 1065.96 401.827 1067.78C401.307 1069.6 401.047 1071.94 401.047 1074.8C401.047 1076.89 401.307 1078.71 401.827 1080.27C402.608 1081.83 403.909 1082.87 405.73 1083.39C408.592 1083.39 411.324 1083.26 413.926 1083C416.788 1082.48 419.65 1082.22 422.512 1082.22C426.675 1082.22 430.838 1082.48 435.001 1083C439.424 1083.26 443.717 1083.39 447.88 1083.39H452.563C455.685 1082.87 457.246 1080.92 457.246 1077.54C457.507 1074.15 457.637 1070.77 457.637 1067.39C459.458 1039.55 459.848 1012.1 458.808 985.04C457.767 957.721 457.637 930.011 458.417 901.911V898.009C458.417 896.447 458.287 894.886 458.027 893.325C458.027 891.764 457.897 890.203 457.637 888.642ZM344.066 966.307C345.367 959.802 349.01 954.078 354.994 949.135C361.238 943.931 369.694 941.329 380.362 941.329C385.826 941.329 389.859 941.72 392.46 942.5C395.322 943.281 397.274 945.102 398.315 947.964C399.615 950.826 400.266 954.989 400.266 960.453C400.526 965.657 400.656 972.812 400.656 981.918C400.656 989.203 400.526 995.838 400.266 1001.82C400.266 1007.55 399.485 1012.49 397.924 1016.65C396.623 1020.56 394.282 1023.68 390.899 1026.02C387.777 1028.1 382.964 1029.14 376.459 1029.14C365.531 1029.14 356.945 1025.11 350.701 1017.04C344.716 1008.72 341.724 998.7 341.724 986.992C341.724 983.609 341.854 980.227 342.115 976.845C342.375 973.202 343.025 969.689 344.066 966.307ZM557.386 908.936C557.126 905.294 556.996 902.041 556.996 899.179C557.256 896.317 557.126 892.675 556.606 888.252C556.606 887.471 555.565 887.081 553.483 887.081C551.402 886.821 549.06 886.821 546.458 887.081C543.856 887.341 541.255 887.731 538.653 888.252C536.051 888.512 534.23 888.642 533.189 888.642C530.067 888.902 527.465 889.162 525.383 889.422C523.302 889.422 521.35 889.422 519.529 889.422C517.708 889.422 515.757 889.422 513.675 889.422C511.594 889.162 508.992 888.902 505.869 888.642C504.829 922.986 504.569 956.16 505.089 988.163C505.869 1020.17 506.26 1052.17 506.26 1084.17C512.504 1083.65 517.708 1083.52 521.871 1083.78C526.034 1084.04 529.806 1084.17 533.189 1084.17C536.571 1084.43 539.824 1084.43 542.946 1084.17C546.328 1083.91 550.231 1083.13 554.654 1081.83V1080.27C555.695 1071.68 556.215 1063.1 556.215 1054.51C556.215 1045.92 555.955 1037.34 555.435 1028.75C555.175 1019.91 554.914 1011.19 554.654 1002.6C554.394 993.757 554.524 984.78 555.044 975.674C555.565 968.649 557.386 963.445 560.508 960.063C563.631 956.42 567.143 954.078 571.046 953.038C574.949 951.737 578.851 951.477 582.754 952.257C586.917 952.777 590.039 953.558 592.121 954.599C592.381 954.859 592.641 954.989 592.901 954.989C593.162 954.989 593.422 955.119 593.682 955.379C595.763 956.94 597.324 959.152 598.365 962.014C599.666 964.876 600.577 968.128 601.097 971.771C601.878 975.414 602.398 979.186 602.658 983.089C602.918 986.732 603.179 990.114 603.439 993.236C603.959 1000.26 604.219 1007.81 604.219 1015.87C604.48 1023.94 604.48 1032 604.219 1040.07C604.219 1048.14 604.219 1055.94 604.219 1063.49C604.219 1071.03 604.48 1077.8 605 1083.78C614.106 1083.78 622.172 1083.78 629.197 1083.78C636.482 1084.04 644.678 1083.52 653.785 1082.22C653.264 1073.37 653.134 1063.1 653.394 1051.39C653.654 1039.68 653.915 1027.58 654.175 1015.09C654.435 1002.34 654.565 989.854 654.565 977.625C654.825 965.136 654.695 953.688 654.175 943.281C653.915 932.873 653.004 924.027 651.443 916.742C650.142 909.197 648.191 904.253 645.589 901.911C640.125 897.228 634.011 893.976 627.246 892.154C620.481 890.333 613.456 889.553 606.171 889.813C599.146 890.073 592.251 891.374 585.486 893.716C578.721 896.057 572.607 899.179 567.143 903.082C565.842 904.123 564.151 905.164 562.069 906.204C560.248 907.245 558.687 908.156 557.386 908.936ZM747.527 985.04C750.129 985.561 754.292 985.951 760.016 986.211C765.74 986.471 772.115 986.602 779.14 986.602C786.425 986.602 793.97 986.471 801.776 986.211C809.581 985.951 816.867 985.561 823.631 985.04C830.656 984.52 836.641 984 841.584 983.479C846.788 982.959 850.3 982.439 852.122 981.918C852.902 970.99 852.902 960.193 852.122 949.525C851.341 938.858 848.999 929.101 845.097 920.254C841.454 911.408 835.99 903.863 828.705 897.618C821.42 891.374 811.793 887.211 799.825 885.129C790.458 882.788 780.831 881.747 770.944 882.007C761.057 882.267 751.69 883.829 742.844 886.691C733.998 889.292 726.062 893.325 719.037 898.789C712.012 903.993 706.808 910.367 703.426 917.913C700.304 926.499 698.222 935.345 697.182 944.452C696.401 953.298 695.62 962.534 694.84 972.161C694.32 982.829 694.58 993.496 695.62 1004.16C696.661 1014.83 698.613 1024.98 701.475 1034.61C704.337 1043.97 708.109 1052.69 712.793 1060.75C717.476 1068.56 723.33 1074.93 730.355 1079.88C736.6 1083.52 743.364 1085.86 750.65 1086.9C757.935 1086.9 765.87 1087.16 774.456 1087.68C783.303 1088.2 791.889 1088.2 800.215 1087.68C808.541 1087.16 816.216 1085.6 823.241 1083C830.266 1080.4 835.99 1075.98 840.413 1069.73C842.235 1068.17 843.666 1065.44 844.706 1061.53C846.007 1057.37 847.048 1052.56 847.829 1047.09C848.609 1041.37 849.26 1035.26 849.78 1028.75C850.3 1022.25 850.821 1015.61 851.341 1008.85C848.479 1008.07 844.836 1007.68 840.413 1007.68C835.99 1007.42 831.307 1007.42 826.363 1007.68C821.68 1007.94 817.127 1008.2 812.704 1008.46C808.281 1008.46 804.768 1008.33 802.166 1008.07C802.687 1018.73 800.995 1026.8 797.093 1032.26C793.45 1037.47 788.897 1040.59 783.433 1041.63C777.969 1042.67 772.375 1041.76 766.651 1038.9C760.927 1036.04 756.504 1031.61 753.382 1025.63C750.519 1020.95 748.828 1016.13 748.308 1011.19C748.048 1006.25 747.788 999.871 747.527 992.065V985.04ZM794.751 924.547C799.434 926.889 803.077 930.402 805.679 935.085C808.541 939.768 809.972 944.712 809.972 949.915C809.972 951.997 809.972 953.428 809.972 954.209C809.972 954.729 809.191 955.119 807.63 955.379C806.329 955.379 803.987 955.249 800.605 954.989C797.223 954.729 792.149 954.599 785.384 954.599C775.497 954.599 767.952 954.729 762.748 954.989C757.805 954.989 754.162 954.859 751.82 954.599C749.479 954.078 748.178 953.298 747.918 952.257C747.918 950.956 748.178 948.875 748.698 946.013C749.219 942.63 749.999 939.378 751.04 936.256C752.341 933.134 754.162 930.402 756.504 928.06C758.845 925.718 761.968 923.897 765.87 922.596C769.773 921.295 774.847 920.645 781.091 920.645C783.953 920.645 786.425 921.035 788.506 921.815C790.588 922.336 792.669 923.247 794.751 924.547ZM947.48 799.659C944.098 799.138 940.195 798.878 935.772 798.878C931.349 798.878 926.666 799.008 921.722 799.268C917.039 799.268 912.225 799.399 907.282 799.659C902.599 799.659 898.305 799.659 894.403 799.659C894.663 847.012 894.273 893.976 893.232 940.549C892.191 987.122 892.581 1034.61 894.403 1083C898.305 1083.52 902.599 1083.78 907.282 1083.78C912.225 1083.78 917.039 1083.65 921.722 1083.39C926.405 1083.13 930.829 1083 934.992 1083C939.415 1082.74 943.057 1082.74 945.919 1083C946.96 1077.28 947.61 1071.03 947.871 1064.27C948.131 1057.24 948.261 1050.35 948.261 1043.58C948.261 1036.82 948.131 1030.31 947.871 1024.07C947.61 1017.82 947.48 1012.36 947.48 1007.68C951.904 1013.4 955.806 1019.38 959.189 1025.63C962.831 1031.87 966.214 1038.25 969.336 1044.75C972.458 1051 975.58 1057.37 978.703 1063.88C982.085 1070.38 985.728 1076.76 989.63 1083C993.533 1083.78 998.216 1084.3 1003.68 1084.56C1009.4 1084.82 1015.26 1084.82 1021.24 1084.56C1027.23 1084.3 1032.95 1083.91 1038.41 1083.39C1044.14 1083.13 1048.82 1083 1052.46 1083C1042.58 1062.97 1031.65 1043.71 1019.68 1025.24C1007.97 1006.51 996.265 987.642 984.557 968.649C995.484 954.078 1006.54 939.638 1017.73 925.328C1028.92 910.758 1039.33 896.057 1048.95 881.227C1045.31 880.966 1040.63 881.097 1034.9 881.617C1029.18 881.877 1023.32 882.137 1017.34 882.397C1011.62 882.397 1006.02 882.397 1000.56 882.397C995.094 882.137 990.671 881.357 987.289 880.056C983.386 884.479 979.873 889.162 976.751 894.106C973.889 899.049 971.027 903.993 968.165 908.936C965.303 913.62 962.181 918.303 958.798 922.986C955.676 927.67 951.904 931.963 947.48 935.865C946.7 929.881 946.44 922.076 946.7 912.449C947.22 902.822 947.48 893.716 947.48 885.129V799.659ZM1228.59 888.642C1220.26 888.122 1212.85 887.731 1206.34 887.471C1200.1 887.211 1194.76 886.951 1190.34 886.691C1189.56 886.691 1188.13 886.691 1186.05 886.691C1183.97 886.691 1181.88 886.691 1179.8 886.691C1177.72 886.43 1175.77 886.43 1173.95 886.691C1172.39 886.691 1171.61 886.821 1171.61 887.081C1171.61 890.203 1171.22 893.325 1170.44 896.447C1169.92 899.31 1169.79 902.822 1170.05 906.985C1168.22 902.562 1166.01 899.179 1163.41 896.838C1160.81 894.236 1157.82 892.415 1154.43 891.374C1151.05 890.073 1147.28 889.422 1143.12 889.422C1139.21 889.162 1134.92 889.032 1130.24 889.032C1121.13 889.292 1112.54 891.764 1104.48 896.447C1096.41 900.871 1089.39 907.115 1083.4 915.181C1077.68 922.986 1073.13 932.353 1069.74 943.281C1066.36 954.209 1064.67 966.177 1064.67 979.186C1064.67 989.594 1065.71 1000.91 1067.79 1013.14C1070.13 1025.37 1073.65 1036.69 1078.33 1047.09C1083.01 1057.5 1088.87 1066.22 1095.89 1073.24C1103.18 1080.27 1111.89 1083.78 1122.04 1083.78C1131.15 1083.78 1140.38 1081.57 1149.75 1077.15C1159.38 1072.72 1167.31 1067.39 1173.56 1061.14C1173.56 1063.75 1173.3 1065.96 1172.78 1067.78C1172.26 1069.6 1172 1071.94 1172 1074.8C1172 1076.89 1172.26 1078.71 1172.78 1080.27C1173.56 1081.83 1174.86 1082.87 1176.68 1083.39C1179.54 1083.39 1182.27 1083.26 1184.88 1083C1187.74 1082.48 1190.6 1082.22 1193.46 1082.22C1197.62 1082.22 1201.79 1082.48 1205.95 1083C1210.37 1083.26 1214.67 1083.39 1218.83 1083.39H1223.51C1226.64 1082.87 1228.2 1080.92 1228.2 1077.54C1228.46 1074.15 1228.59 1070.77 1228.59 1067.39C1230.41 1039.55 1230.8 1012.1 1229.76 985.04C1228.72 957.721 1228.59 930.011 1229.37 901.911V898.009C1229.37 896.447 1229.24 894.886 1228.98 893.325C1228.98 891.764 1228.85 890.203 1228.59 888.642ZM1115.02 966.307C1116.32 959.802 1119.96 954.078 1125.94 949.135C1132.19 943.931 1140.64 941.329 1151.31 941.329C1156.78 941.329 1160.81 941.72 1163.41 942.5C1166.27 943.281 1168.22 945.102 1169.26 947.964C1170.57 950.826 1171.22 954.989 1171.22 960.453C1171.48 965.657 1171.61 972.812 1171.61 981.918C1171.61 989.203 1171.48 995.838 1171.22 1001.82C1171.22 1007.55 1170.44 1012.49 1168.87 1016.65C1167.57 1020.56 1165.23 1023.68 1161.85 1026.02C1158.73 1028.1 1153.91 1029.14 1147.41 1029.14C1136.48 1029.14 1127.9 1025.11 1121.65 1017.04C1115.67 1008.72 1112.67 998.7 1112.67 986.992C1112.67 983.609 1112.8 980.227 1113.06 976.845C1113.32 973.202 1113.98 969.689 1115.02 966.307ZM1328.34 908.936C1328.08 905.294 1327.95 902.041 1327.95 899.179C1328.21 896.317 1328.08 892.675 1327.56 888.252C1327.56 887.471 1326.51 887.081 1324.43 887.081C1322.35 886.821 1320.01 886.821 1317.41 887.081C1314.81 887.341 1312.2 887.731 1309.6 888.252C1307 888.512 1305.18 888.642 1304.14 888.642C1301.02 888.902 1298.41 889.162 1296.33 889.422C1294.25 889.422 1292.3 889.422 1290.48 889.422C1288.66 889.422 1286.71 889.422 1284.63 889.422C1282.54 889.162 1279.94 888.902 1276.82 888.642C1275.78 922.986 1275.52 956.16 1276.04 988.163C1276.82 1020.17 1277.21 1052.17 1277.21 1084.17C1283.45 1083.65 1288.66 1083.52 1292.82 1083.78C1296.98 1084.04 1300.76 1084.17 1304.14 1084.17C1307.52 1084.43 1310.77 1084.43 1313.9 1084.17C1317.28 1083.91 1321.18 1083.13 1325.6 1081.83V1080.27C1326.64 1071.68 1327.17 1063.1 1327.17 1054.51C1327.17 1045.92 1326.91 1037.34 1326.38 1028.75C1326.12 1019.91 1325.86 1011.19 1325.6 1002.6C1325.34 993.757 1325.47 984.78 1325.99 975.674C1326.51 968.649 1328.34 963.445 1331.46 960.063C1334.58 956.42 1338.09 954.078 1342 953.038C1345.9 951.737 1349.8 951.477 1353.7 952.257C1357.87 952.777 1360.99 953.558 1363.07 954.599C1363.33 954.859 1363.59 954.989 1363.85 954.989C1364.11 954.989 1364.37 955.119 1364.63 955.379C1366.71 956.94 1368.27 959.152 1369.32 962.014C1370.62 964.876 1371.53 968.128 1372.05 971.771C1372.83 975.414 1373.35 979.186 1373.61 983.089C1373.87 986.732 1374.13 990.114 1374.39 993.236C1374.91 1000.26 1375.17 1007.81 1375.17 1015.87C1375.43 1023.94 1375.43 1032 1375.17 1040.07C1375.17 1048.14 1375.17 1055.94 1375.17 1063.49C1375.17 1071.03 1375.43 1077.8 1375.95 1083.78C1385.06 1083.78 1393.12 1083.78 1400.15 1083.78C1407.43 1084.04 1415.63 1083.52 1424.73 1082.22C1424.21 1073.37 1424.08 1063.1 1424.34 1051.39C1424.6 1039.68 1424.86 1027.58 1425.12 1015.09C1425.39 1002.34 1425.52 989.854 1425.52 977.625C1425.78 965.136 1425.65 953.688 1425.12 943.281C1424.86 932.873 1423.95 924.027 1422.39 916.742C1421.09 909.197 1419.14 904.253 1416.54 901.911C1411.07 897.228 1404.96 893.976 1398.2 892.154C1391.43 890.333 1384.41 889.553 1377.12 889.813C1370.1 890.073 1363.2 891.374 1356.44 893.716C1349.67 896.057 1343.56 899.179 1338.09 903.082C1336.79 904.123 1335.1 905.164 1333.02 906.204C1331.2 907.245 1329.64 908.156 1328.34 908.936ZM1519.26 886.691C1510.93 886.951 1503.78 886.951 1497.79 886.691C1491.81 886.43 1487.13 886.17 1483.74 885.91C1482.44 885.91 1480.49 885.78 1477.89 885.52C1475.55 885.26 1473.86 885.26 1472.81 885.52V885.91C1471.25 901.261 1470.47 917.132 1470.47 933.524C1470.47 949.655 1470.73 966.047 1471.25 982.699C1471.77 999.351 1472.03 1016.13 1472.03 1033.04C1472.29 1049.96 1471.77 1066.61 1470.47 1083C1472.29 1082.48 1475.94 1082.35 1481.4 1082.61C1486.86 1082.87 1492.59 1083 1498.57 1083C1504.82 1083.26 1510.54 1083.26 1515.75 1083C1520.95 1083 1524.2 1082.22 1525.5 1080.66C1523.68 1049.18 1523.16 1017.04 1523.94 984.26C1524.98 951.477 1525.63 919.344 1525.89 887.861V886.691H1519.26ZM1471.25 801.61C1470.99 813.579 1471.12 823.726 1471.64 832.052C1472.42 840.117 1472.81 847.923 1472.81 855.468C1477.76 855.208 1483.09 855.338 1488.82 855.859C1494.54 856.119 1499.87 856.379 1504.82 856.639C1510.02 856.639 1514.44 856.379 1518.09 855.859C1521.99 855.338 1524.46 854.298 1525.5 852.736C1525.5 848.834 1525.37 844.41 1525.11 839.467C1525.11 834.263 1524.98 829.32 1524.72 824.636C1524.72 819.693 1524.59 815.27 1524.33 811.367C1524.33 807.204 1524.33 804.342 1524.33 802.781L1471.25 801.61Z" fill="black"/>
<path d="M1007.7 463.324C1120.79 636.918 1390.2 353.079 1345.57 264.618C1309.86 193.837 1042.67 22.8027 809.891 40.6994C577.117 58.5962 326.683 204.962 398.814 462.115C720.633 187.386 899.931 297.889 1007.7 463.324Z" fill="url(#paint0_linear_1_32)"/>
<path d="M722.064 387.312C945.837 355.779 938.766 567.335 885.325 648.266C842.565 713.022 592.898 818.097 428.483 743.821C264.068 669.545 229.908 557.112 249.241 393.706C417.527 729.19 491.712 419.772 722.064 387.312Z" fill="url(#paint1_linear_1_32)"/>
<defs>
<linearGradient id="paint0_linear_1_32" x1="844.978" y1="37.9431" x2="884.096" y2="536.05" gradientUnits="userSpaceOnUse">
<stop stop-color="#FF4003"/>
<stop offset="1" stop-color="#DC7210"/>
</linearGradient>
<linearGradient id="paint1_linear_1_32" x1="508.412" y1="768.344" x2="618.593" y2="339.469" gradientUnits="userSpaceOnUse">
<stop stop-color="#FF4003"/>
<stop offset="1" stop-color="#DC7210"/>
</linearGradient>
</defs>
</svg>
